<svg id="Layer_1" data-name="Layer 1" xmlns="http://www.w3.org/2000/svg" viewBox="0 0 800 1247"><rect width="800" height="1247" rx="20" style="fill:#fff"/><path d="M340.6,348.4l-2.2,4,1.7-.5a4.9,4.9,0,0,1,2.4.1,92.1,92.1,0,0,0,12.2,3.3,4,4,0,0,1,3.5,4.7,4.2,4.2,0,0,1-4.7,3.6,87.6,87.6,0,0,1-12.4-3.3l-8.5,2.3-.5.7,7.8-.5a4.1,4.1,0,0,1,2.4.6l8.7,5.4a4.1,4.1,0,0,1,1.4,5.7,4.2,4.2,0,0,1-3.6,2,4.6,4.6,0,0,1-2.2-.6l-7.5-4.7-11.9.7-.6,1.4c-4,7.2-11.5,15.8-19.2,20.6h.4l30.3-7.9h0c2.8-.8,9.2-2.3,9.2-2.3l10.6-2.8a34.3,34.3,0,0,0,2.8,4.2,46.7,46.7,0,0,1,15.1-9.4v-23a93.7,93.7,0,0,1-19.5-8.5c-5,.6-11.5,1.5-16.5,2.5C340.6,347.3,340.9,347.9,340.6,348.4Z" style="fill:none"/><polygon points="291 593.8 292.7 592.1 291.1 593.6 291 593.8" style="fill:none"/><path d="M423.5,376.6V353.5a88.4,88.4,0,0,1-35.9,1.9,95.6,95.6,0,0,1-11.8-2.6v23a46.7,46.7,0,0,0-15.1,9.4,42.5,42.5,0,0,0,15.1,12.3l2,.9a50.9,50.9,0,0,0,20.6,4.1,49.6,49.6,0,0,0,20.2-4.1,37.5,37.5,0,0,0,4.9-2.5A42.9,42.9,0,0,0,436,384.6,45.4,45.4,0,0,0,423.5,376.6Z" style="fill:#edbbab"/><path d="M454.8,384.3l.7.2Z" style="fill:#183b59"/><path d="M340.2,612.2s-2.1-19.3-2.5-25.8a19.3,19.3,0,0,1-.1-2.5c-3.1,3.5-5.9,8.6-13.3,12a47.3,47.3,0,0,1-10.1,3.7l7.7,50v-.7h7.8v-7.3h9.6v7.3h36.9v-6.7h47.2v6.7H452v-7.3h9.5v7.3H475v3.4l5.4-35.7C426.2,621.1,340.2,612.2,340.2,612.2Z" style="fill:#183b59"/><path d="M449.6,382.9l2.2.6Z" style="fill:#183b59"/><path d="M344.4,1137.8c7.7,0,17.6,1.5,19.4,3s2,4.9,2,9.3a39.5,39.5,0,0,1,13.2,8.4h0l1.8,1.8v-23.5l-36.4-3.9Z" style="fill:#ffe1d9"/><path d="M355.2,1147.9a31.8,31.8,0,0,1,10.6,2.2c0-4.4-.7-8.2-2-9.3s-11.7-3-19.4-3c-5.4.1-9.8.9-9.5,3,.7,4.1,1.1,7.5,1.3,10.3A46.9,46.9,0,0,1,355.2,1147.9Z" style="fill:#74777b"/><path d="M370.4,1185.8c-9.8-3.8-2.4-18.1,8.6-27.3a39.5,39.5,0,0,0-13.2-8.4,31.8,31.8,0,0,0-10.6-2.2,46.9,46.9,0,0,0-19,3.2A35.8,35.8,0,0,0,322,1162c8.7,9,13.4,20.4,4.8,23.8-4.3,1.7-9.4,2-14.1,1.8a63.6,63.6,0,0,0-.1,7.5h81.8a5.7,5.7,0,0,0,.8-2.9,27.6,27.6,0,0,0-.6-5.7C388.5,1187.6,378.1,1188.8,370.4,1185.8Z" style="fill:#f1f2f2"/><polygon points="312 1195.1 313.3 1206.5 393.7 1206.5 394.8 1195.1 394.4 1195.1 312.6 1195.1 312 1195.1" style="fill:#74777b"/><path d="M379,1158.5c-11,9.2-18.4,23.5-8.6,27.3,7.7,3,18.1,1.8,24.2.7-1.5-9.1-6.6-18.8-13.8-26.2l-1.8-1.8Z" style="fill:#74777b"/><path d="M326.8,1185.8c8.6-3.4,3.9-14.8-4.8-23.8-5.9,7.6-8.6,17.1-9.3,25.6C317.4,1187.8,322.5,1187.5,326.8,1185.8Z" style="fill:#74777b"/><polygon points="475 652.8 475 668.5 461.5 668.5 461.5 675.7 452 675.7 452 668.5 423.4 668.5 423.4 675.1 376.2 675.1 376.2 668.5 339.3 668.5 339.3 675.7 329.7 675.7 329.7 668.5 321.9 668.5 321.9 652.8 321.7 652.8 321.7 725.4 321.7 725.4 333.7 1109.9 388.1 1113.1 394.1 725.4 402.7 725.4 408.7 1113 463.1 1109.8 475.1 725.4 475.2 725.4 475.2 725.4 475.2 652.8 475 652.8" style="fill:#08b"/><polygon points="452.4 1132.7 462.4 1131.7 462.4 1131.6 452.4 1132.7 452.4 1132.7" style="fill:#08b"/><polygon points="324.4 1109.4 328 1131.1 344.4 1132.9 380.8 1136.8 390.4 1137.8 393.2 1113.4 388.1 1113.1 333.7 1109.9 324.4 1109.4" style="fill:#0be"/><path d="M416.1,1136.6v23.7l1.7-1.8h0a39.5,39.5,0,0,1,13.2-8.4c0-4.4.8-8.2,2-9.3s11.7-3,19.4-3v-5.1h0Z" style="fill:#ffe1d9"/><polygon points="401.8 1113.4 404.6 1137.8 416.1 1136.6 452.4 1132.7 462.4 1131.6 467 1131.1 470.6 1109.4 463.1 1109.8 408.7 1113 401.8 1113.4" style="fill:#0be"/><path d="M431,1150.1a32.4,32.4,0,0,1,10.6-2.2,46.9,46.9,0,0,1,19,3.2c.3-2.8.7-6.2,1.3-10.3.3-2.1-4-2.9-9.5-3-7.7,0-17.6,1.5-19.4,3S431,1145.7,431,1150.1Z" style="fill:#74777b"/><path d="M441.6,1147.9a32.4,32.4,0,0,0-10.6,2.2,39.5,39.5,0,0,0-13.2,8.4c11.1,9.2,18.5,23.5,8.7,27.3-7.8,3-18.2,1.8-24.3.7a27.5,27.5,0,0,0-.5,5.7,5.7,5.7,0,0,0,.7,2.9h81.8a47.5,47.5,0,0,0-.1-7.5c-4.7.2-9.8-.1-14.1-1.8-8.6-3.4-3.9-14.8,4.9-23.8a36.1,36.1,0,0,0-14.3-10.9A46.9,46.9,0,0,0,441.6,1147.9Z" style="fill:#f1f2f2"/><polygon points="402 1195.1 403.1 1206.5 483.6 1206.5 484.8 1195.1 484.2 1195.1 402.4 1195.1 402 1195.1" style="fill:#74777b"/><path d="M426.5,1185.8c9.8-3.8,2.4-18.1-8.7-27.3h0l-1.7,1.8c-7.3,7.4-12.4,17.1-13.9,26.2C408.3,1187.6,418.7,1188.8,426.5,1185.8Z" style="fill:#74777b"/><path d="M470,1185.8c4.3,1.7,9.4,2,14.1,1.8-.6-8.5-3.4-18-9.2-25.6C466.1,1171,461.4,1182.4,470,1185.8Z" style="fill:#74777b"/><polygon points="461.5 648.9 461.5 668.5 475 668.5 475 652.8 475 652.3 475 648.9 461.5 648.9" style="fill:#a67c52"/><polygon points="329.7 668.5 329.7 648.9 321.9 648.9 321.9 649.6 321.9 652.8 321.9 668.5 329.7 668.5" style="fill:#a67c52"/><rect x="339.3" y="648.9" width="36.9" height="19.6" style="fill:#a67c52"/><rect x="423.4" y="648.9" width="28.6" height="19.6" style="fill:#a67c52"/><polygon points="329.7 668.5 329.7 675.7 339.3 675.7 339.3 668.5 339.3 648.9 339.3 641.6 329.7 641.6 329.7 648.9 329.7 668.5" style="fill:#555"/><polygon points="452 668.5 452 675.7 461.5 675.7 461.5 668.5 461.5 648.9 461.5 641.6 452 641.6 452 648.9 452 668.5" style="fill:#555"/><polygon points="376.2 668.5 376.2 675.1 423.4 675.1 423.4 668.5 423.4 648.9 423.4 642.2 376.2 642.2 376.2 648.9 376.2 668.5" style="fill:#b3b3b3"/><path d="M511,405.7a12.1,12.1,0,0,0-8.4-8.3l-63.7-17.5a28.5,28.5,0,0,1-2.9,4.7,42.9,42.9,0,0,1-12.5,11.3,37.5,37.5,0,0,1-4.9,2.5,49.6,49.6,0,0,1-20.2,4.1,50.9,50.9,0,0,1-20.6-4.1l-2-.9a42.5,42.5,0,0,1-15.1-12.3,34.3,34.3,0,0,1-2.8-4.2l-50.1,13c14.3,6.3,17.3,11,17.3,11s.8,6.7,2,17.3h0c3.5,32.7,10.2,103,6.7,135.3-.3,2.7-.7,5.1-1.1,7.2l5.3-.2c.3-4,.5-6.9.5-6.9s99.8-3.7,151.6-5l5.6-37.1,1.9-12.9,1.3-8.5,2-13.2,10.6-70A13.5,13.5,0,0,0,511,405.7Z" style="fill:#183b59"/><path d="M347.3,383.8h0s-6.4,1.5-9.2,2.3h0c19.3,41,91.4,52.7,118.6-1.3h0l-1.2-.3-.7-.2-3-.8-2.2-.6-1.1-.3h0C416.9,428.9,363.2,410.9,347.3,383.8Z" style="fill:#0c6ed6"/><path d="M332.1,363.3l.5-.7-3.4.9Z" style="fill:#edbbab"/><path d="M309.9,352.5l1-1.9A3.9,3.9,0,0,0,309.9,352.5Z" style="fill:#ffe1d9"/><path d="M304.5,598.7l.8.5,4.5-5.4Z" style="fill:#ffe1d9"/><path d="M443.2,165.6a55.8,55.8,0,0,0-4.7-3.8c-2.9,6.3-5,10.4-5,10.4l-28-1.2a51.8,51.8,0,0,1,5.1,5.4c-5.2-2.1-10.3-4-15.4-5.8l-21.3-.9L405,191.6a162.6,162.6,0,0,1-53,2.7c-11.4-1.3-50.7-10.4-50.7-10.4L264,202.3l.2,42.8,14.4,59.6s-3.4-4.3-8.4-11.3a161.2,161.2,0,0,0,20.3,33.3c10.5,13.4,22.8,24.8,36,33,3.8,2.9,7.9,3.7,8.8,5,8.9,4.5,35.1,14,61.3,10.8a66.2,66.2,0,0,0,11.7-2.7,88.9,88.9,0,0,0,31.5-17.3,104.9,104.9,0,0,0,22-26.1c10.2-16.8,16.1-38,17.7-60.1a162,162,0,0,0-1.9-39.9,16.7,16.7,0,0,1-1.4,5L460.9,192A64.2,64.2,0,0,0,443.2,165.6ZM363.3,288.9a1.7,1.7,0,0,1-.1-.7,5.3,5.3,0,0,1,.1-1.3c.1-.8.3-1.4.4-2a71.8,71.8,0,0,1,2.7-6.7l2.9-6.3a48,48,0,0,0,2.4-6.3,10.6,10.6,0,0,0,.2-6.6,7.1,7.1,0,0,1,1.7,3.2,15.8,15.8,0,0,1,.3,3.7,33.9,33.9,0,0,1-1.2,7.2c-.7,2.3-1.5,4.6-2.3,6.7s-1.7,4.4-2.3,6.4a10.3,10.3,0,0,0-.4,1.4v.4h0v.3a4.3,4.3,0,0,0,1.1,2.1,15,15,0,0,0,4.9,3.3,43.4,43.4,0,0,0,6.4,2,25.9,25.9,0,0,0,6.8.9,9.6,9.6,0,0,1-3.4,1,21.9,21.9,0,0,1-3.6.3,26.1,26.1,0,0,1-7.3-.9,14.5,14.5,0,0,1-7-3.7,8.5,8.5,0,0,1-2.3-3.9ZM277,238.2c9.6-26.3,33.6-21.3,45.1-19l5.1,1a5.4,5.4,0,0,1,1.6,10.2,6,6,0,0,1-3,.5l-5.9-1.1c-14.9-3.1-26.9-4.1-32.8,12.1a5.4,5.4,0,1,1-10.1-3.7Zm116.6,82.3c-8,1.7-17.6-1.6-20.8-5.6,5.6.7,16-1.5,19.1-2.3a176.9,176.9,0,0,0,18.9-6.1C409,311.1,402.3,318.7,393.6,320.5Zm49.5-127.6a5.6,5.6,0,0,1-3.1,4.5,6,6,0,0,1-2.7.6c-6.9-.5-20.3,7.9-29.1,13.4-3.9,2.5-7.3,4.6-10.2,6.1a5.4,5.4,0,1,1-5-9.5c2.5-1.3,5.9-3.4,9.4-5.7,11.2-7,25.2-15.8,35.6-15.1A5.4,5.4,0,0,1,443.1,192.9Z" style="fill:#ffe1d9"/><path d="M270.2,293.4c-3.4-4.6-7.6-10.4-12.1-17a10.9,10.9,0,0,0-10,4c-6.6,8.5-3.1,27.2,7.8,42s25.1,19.7,31.7,11.3a15.3,15.3,0,0,0,2.9-7A161.2,161.2,0,0,1,270.2,293.4Z" style="fill:#ffe1d9"/><path d="M479.5,269.3a15.7,15.7,0,0,0,6.2,4c10.2,3.4,19.1-8.8,20-27.1s-6.7-35.8-16.9-39.1a10.6,10.6,0,0,0-10.4,2.1c.5,9.9-.1,16.3-.8,20.2A162,162,0,0,1,479.5,269.3Z" style="fill:#ffe1d9"/><path d="M287.1,241.9c5.9-16.2,17.9-15.2,32.8-12.1l5.9,1.1a6,6,0,0,0,3-.5,5.4,5.4,0,0,0-1.6-10.2l-5.1-1c-11.5-2.3-35.5-7.3-45.1,19a5.4,5.4,0,1,0,10.1,3.7Z" style="fill:#42210b"/><path d="M443.1,192.9a5.4,5.4,0,0,0-5.1-5.7c-10.4-.7-24.4,8.1-35.6,15.1-3.5,2.3-6.9,4.4-9.4,5.7a5.4,5.4,0,1,0,5,9.5c2.9-1.5,6.3-3.6,10.2-6.1,8.8-5.5,22.2-13.9,29.1-13.4a6,6,0,0,0,2.7-.6A5.6,5.6,0,0,0,443.1,192.9Z" style="fill:#42210b"/><path d="M446.8,220.4a31.8,31.8,0,0,1,2.3,4A23,23,0,0,0,446.8,220.4Z" style="fill:#fff"/><path d="M343.3,259.9a13.5,13.5,0,0,0-3.5-6.8c-4.6-2.7-9.2-5.1-14.4-6.3a27.6,27.6,0,0,0-15.8,1.5A31.8,31.8,0,0,0,297,258.4a29.8,29.8,0,0,0-6.1,14.8c.8,4,3.4,6.9,7.1,8.8a33.2,33.2,0,0,0,9.4,1.2,52,52,0,0,0,12.3-2.1,71.8,71.8,0,0,0,11.9-4.7,44.4,44.4,0,0,0,8.9-5.9C342.9,267.1,344,263.5,343.3,259.9Zm-10.2-.5c1.6,8.9-4.9,17.9-14.5,20.2s-18.7-3.2-20.4-12,4.9-17.9,14.5-20.2S331.4,250.5,333.1,259.4Z" style="fill:#fff"/><path d="M312.7,247.4a17.9,17.9,0,1,0,21.2,13.7A17.8,17.8,0,0,0,312.7,247.4Zm17.8,13.8a15,15,0,0,1-29.3,6.2,14.4,14.4,0,0,1,.6-8c0-.2-.1-.3-.1-.5a5.5,5.5,0,0,1,4.3-6.6h1.3a13.6,13.6,0,0,1,5.5-2.4A14.8,14.8,0,0,1,330.5,261.2Z" style="fill:#a67c52"/><path d="M313,249.7a14.4,14.4,0,0,0-5.5,2.4,5.6,5.6,0,0,1,5.3,4.5,5.6,5.6,0,0,1-10.8,2.7,14.8,14.8,0,0,0-.6,8.1A15,15,0,1,0,313,249.7Z" style="fill:#2b1407"/><path d="M308.5,263.7a5.6,5.6,0,0,0,4.3-6.7,5.4,5.4,0,0,0-5.3-4.4h-1.3a5.5,5.5,0,0,0-4.3,6.6c0,.2.1.3.1.5A5.6,5.6,0,0,0,308.5,263.7Z" style="fill:#f2f2f2"/><path d="M298,259.7a34.1,34.1,0,0,1,13.1-9.3,29.6,29.6,0,0,1,15.5-1.7,45.3,45.3,0,0,1,13.5,5.3l.3.2c-3.5-3.2-7.5-6.1-12.8-7.4a28.4,28.4,0,0,0-17.4,1.3,33.4,33.4,0,0,0-14.1,10.6,23.1,23.1,0,0,0-5,10.5,15.6,15.6,0,0,0-.2,3.7C291.7,268.1,294.5,263.6,298,259.7Z" style="fill:#42210b"/><path d="M319.7,281a48.4,48.4,0,0,1-12.5,1.8,31.8,31.8,0,0,1-9.6-1.7l-2.8-1.2a21.5,21.5,0,0,0,12.2,5.3,35.9,35.9,0,0,0,13.5-1.1,44.3,44.3,0,0,0,12.3-5.6c3.8-2.4,7.3-5.7,9.1-9.7l-1.5,1.5a37.5,37.5,0,0,1-8.8,6.1A63.7,63.7,0,0,1,319.7,281Z" style="fill:#42210b"/><path d="M449.8,226.3a12.8,12.8,0,0,0-3.5-6.7c-4.6-2.7-9.3-5.2-14.4-6.3a26,26,0,0,0-15.8,1.5,31,31,0,0,0-12.6,10.1,29.5,29.5,0,0,0-6.1,14.7,12.2,12.2,0,0,0,7.1,8.8,27,27,0,0,0,9.4,1.2,47.3,47.3,0,0,0,12.3-2.1,57.8,57.8,0,0,0,11.9-4.7,43,43,0,0,0,8.9-5.9C449.3,233.6,450.5,230,449.8,226.3Zm-10.2-.4c1.6,8.9-4.9,17.9-14.5,20.1s-18.7-3.1-20.4-12,4.9-17.9,14.5-20.1S437.9,217,439.6,225.9Z" style="fill:#fff"/><path d="M419.2,213.8a18.1,18.1,0,0,0-14,21.3,18,18,0,1,0,14-21.3ZM437,227.7a15,15,0,1,1-28.7-1.9c-.1-.1-.1-.3-.2-.4a5.7,5.7,0,0,1,4.4-6.6l1.3-.2a15.1,15.1,0,0,1,5.5-2.4A14.9,14.9,0,0,1,437,227.7Z" style="fill:#a67c52"/><path d="M419.5,216.1a15.8,15.8,0,0,0-5.6,2.5,5.5,5.5,0,0,1,5.4,4.4,5.6,5.6,0,0,1-4.3,6.7,5.5,5.5,0,0,1-6.5-3.9,14.8,14.8,0,0,0-.6,8.1,15,15,0,1,0,11.6-17.8Z" style="fill:#2b1407"/><path d="M415,230.1a5.5,5.5,0,0,0,4.3-6.6,5.7,5.7,0,0,0-5.4-4.5h-1.2a5.7,5.7,0,0,0-4.4,6.7c.1.1.1.3.2.4A5.5,5.5,0,0,0,415,230.1Z" style="fill:#f2f2f2"/><path d="M404.5,226.1a33.9,33.9,0,0,1,13.1-9.2,28.6,28.6,0,0,1,15.5-1.7,45.3,45.3,0,0,1,13.5,5.3h.3c-3.5-3.1-7.5-6-12.8-7.4a29.2,29.2,0,0,0-17.4,1.3,35.1,35.1,0,0,0-14.1,10.6,24,24,0,0,0-5,10.6,15.4,15.4,0,0,0-.3,3.7C398.2,234.6,401,230.1,404.5,226.1Z" style="fill:#42210b"/><path d="M426.2,247.5a48.3,48.3,0,0,1-12.5,1.7,26.6,26.6,0,0,1-9.6-1.7,13.9,13.9,0,0,1-2.8-1.2,21,21,0,0,0,12.2,5.4,35.9,35.9,0,0,0,13.5-1.2,41.4,41.4,0,0,0,12.3-5.5c3.7-2.5,7.3-5.7,9.1-9.8l-1.5,1.6a40.3,40.3,0,0,1-8.8,6A57.8,57.8,0,0,1,426.2,247.5Z" style="fill:#42210b"/><path d="M365.7,293.4a14.5,14.5,0,0,0,7,3.7,26.1,26.1,0,0,0,7.3.9,21.9,21.9,0,0,0,3.6-.3,9.6,9.6,0,0,0,3.4-1,25.9,25.9,0,0,1-6.8-.9,43.4,43.4,0,0,1-6.4-2,15,15,0,0,1-4.9-3.3,4.3,4.3,0,0,1-1.1-2.1v-.3h0v-.4a10.3,10.3,0,0,1,.4-1.4c.6-2,1.5-4.2,2.3-6.4s1.6-4.4,2.3-6.7a33.9,33.9,0,0,0,1.2-7.2,15.8,15.8,0,0,0-.3-3.7,7.1,7.1,0,0,0-1.7-3.2,10.6,10.6,0,0,1-.2,6.6,48,48,0,0,1-2.4,6.3l-2.9,6.3a71.8,71.8,0,0,0-2.7,6.7c-.1.6-.3,1.2-.4,2a5.3,5.3,0,0,0-.1,1.3,1.7,1.7,0,0,0,.1.7v.6A8.5,8.5,0,0,0,365.7,293.4Z" style="fill:#edbbab"/><path d="M452.5,116.6c-1.8,16.1-9,34.2-14,45.2a55.8,55.8,0,0,1,4.7,3.8A64.2,64.2,0,0,1,460.9,192l15.3,42.4a16.7,16.7,0,0,0,1.4-5c.7-3.9,1.3-10.3.8-20.2a238.7,238.7,0,0,0-4.3-31.5C468.9,151.2,461,130.4,452.5,116.6Z" style="fill:#562a19"/><path d="M449.3,93.6c-13.5-23.3-52.6-19.1-52.6-19.1l34-18.2S405.4,37,350.8,49.8c-19.2,4.5-35.1,9.8-48.1,15.5L313,58.1c8.6-5.9,17.5-11.5,26.6-17.6a80.8,80.8,0,0,0-16.2,2.8,110,110,0,0,0-15.5,5.5,108.5,108.5,0,0,0-28.2,17.4,83.7,83.7,0,0,0-6.2,5.7c-1.9,2.1-3.9,4.2-5.6,6.4L266.5,80l-1.2,1.7c-.8,1.2-1.7,2.3-2.4,3.6s-1.5,2.4-2.2,3.7l-1.9,3.8a16.7,16.7,0,0,0-.8,2c-14.9,15.6-16.2,28.1-16.2,28.1l-3.7-38.8s-10.2,25.7-11.1,34.8c-.8,6.8,2.7,27.1,2.7,27.1s-19.1,6.4-12.8,47.8c3.5,23.5,24.7,58.3,41.2,82.6,4.5,6.6,8.7,12.4,12.1,17,5,7,8.4,11.3,8.4,11.3l-14.4-59.6-.2-42.8,37.3-18.4s39.3,9.1,50.7,10.4a162.6,162.6,0,0,0,53-2.7l-31.1-21.9,21.3.9c5.1,1.8,10.2,3.7,15.4,5.8a51.8,51.8,0,0,0-5.1-5.4l28,1.2s2.1-4.1,5-10.4c5-11,12.2-29.1,14-45.2C453.5,107.8,452.9,99.7,449.3,93.6Z" style="fill:#6e391f"/><path d="M364.5,315.5c4.5,5.6,18.1,10.3,29.3,7.9s21.7-13.2,24.3-19.7a258.1,258.1,0,0,1-26.8,8.6C387,313.4,372.3,316.6,364.5,315.5Z" style="fill:#ffe1d9"/><path d="M375,337.2c-.4-4.3,6.3-14.1,15.6-20.4s23.5-9.6,29.3-9.3c-8.5,4.4-20.3,11.7-24.1,14.1S379.8,332.1,375,337.2Z" style="fill:#edbbab"/><path d="M253.9,109.2a49.2,49.2,0,0,0,.9,16.7,104.5,104.5,0,0,1,5.5-14.9A83,83,0,0,1,268,98.1a94.1,94.1,0,0,1,9.5-11.4c3.4-3.6,7.1-7,10.9-10.3s9.3-7.5,14.3-11.1L313,58.1c8.6-5.9,17.5-11.5,26.6-17.6a80.8,80.8,0,0,0-16.2,2.8,110,110,0,0,0-15.5,5.5,108.5,108.5,0,0,0-28.2,17.4,83.7,83.7,0,0,0-6.2,5.7c-1.9,2.1-3.9,4.2-5.6,6.4L266.5,80l-1.2,1.7c-.8,1.2-1.7,2.3-2.4,3.6s-1.5,2.4-2.2,3.7l-1.9,3.8a16.7,16.7,0,0,0-.8,2A56.3,56.3,0,0,0,253.9,109.2Z" style="fill:#7f3e25"/><path d="M309.3,90.2a287.8,287.8,0,0,1,30.8-21c10.8-6.5,22-12.4,33.7-18.3a79.3,79.3,0,0,0-9.8.8c-3.3.5-6.5,1.2-9.7,1.9a134.4,134.4,0,0,0-18.9,6.1,141.4,141.4,0,0,0-34.5,19.9,124.3,124.3,0,0,0-27.2,29.3l-1.3,2.1-1.3,2.2-2.5,4.3c-1.5,3-3,6-4.2,9.1-.6,1.5-1.3,3-1.8,4.6l-1.5,4.8c-.2.7-.5,1.5-.7,2.3l-.5,2.4c-.4,1.7-.7,3.3-1,4.9,7.5-10.9,14.8-21.1,23.2-30.2A202.6,202.6,0,0,1,309.3,90.2Z" style="fill:#7f3e25"/><path d="M299.6,142a208.2,208.2,0,0,1,36-17.9c6.2-2.4,12.5-4.6,19-6.4s13-3.2,19.7-4.5,13.4-2.3,20.2-3,13.8-1.3,20.9-1.5a63.3,63.3,0,0,0-10.2-3.2,94,94,0,0,0-10.6-1.9,128.5,128.5,0,0,0-21.5-1,142,142,0,0,0-21.5,2.7,139.2,139.2,0,0,0-20.9,6.2,131.1,131.1,0,0,0-37.3,22c-10.9,9.4-20.4,20.4-27.2,32.9A368.2,368.2,0,0,1,299.6,142Z" style="fill:#7f3e25"/><path d="M397.4,164.4a96,96,0,0,0-50.9-17.6,81.9,81.9,0,0,0-18.5,1.3l-4.5,1-2.3.6-2.2.7c-1.4.5-2.9.8-4.4,1.4l-4.2,1.8a74.4,74.4,0,0,0-15.6,9.4,68.9,68.9,0,0,0-12.7,12.6c10.8-5,21.2-9.4,31.8-12a109.6,109.6,0,0,1,16-2.9,127.7,127.7,0,0,1,48.3,4.7c5.7,1.5,11.3,3.2,17,5.2s10.2,3.7,15.4,5.8a51.8,51.8,0,0,0-5.1-5.4l-1.1-1C402.2,168,399.8,166.2,397.4,164.4Z" style="fill:#7f3e25"/><polygon points="314.2 392.4 297.5 398.1 315.3 606.5 341.6 629.6 477.5 635.9 510.3 418.9 423.4 451.5 346.4 435.8 339.3 408.9 314.2 392.4" style="fill:#183b59"/><path d="M255.5,784.1c-.6-5.3.7-20.1,0-24.1-2.5-16.2-14.5-23.1-22.7-20.9s-16.2,7.4-21.7,11.4c-9.8,7.2-19.2,22.1-17,25.2s7.7-5,17.5-8.9a4.3,4.3,0,0,1,2.4-.6c.7.2.4,1.4.2,2.9s-1.6,5.8-5.6,13.9-6.2,18.2-3.6,19.5,8.5-5.3,13.2-14.8L220,784c1.1-2.6,2.7-.6,1.8,1.2s-1.8,5.7-2.7,9c-2.8,10.2-2.7,19.1.2,19.9s7.6-6.8,10.4-17c.7-2.5,1.3-4.9,1.8-7.1,1-4,3.9-3.8,3-.6-.4,1.4-.7,2.7-1,4.1-2.5,10.3-2.1,19.2.8,19.8s7.1-7.1,9.6-17.3a80.2,80.2,0,0,0,1.9-13.5c.2-1.4,1.4-.7,1.6.1a36,36,0,0,1,1,4.3c1,7.7,3,15.6,5.5,15.3S256.5,793.1,255.5,784.1Z" style="fill:#ffe1d9"/><path d="M270.7,441.1c4.5,47.8-32.7,224.7-53.4,286.4-1.2,3.6-2.4,6.9-3.4,10-3.5,10.2,39.9,27.6,44.1,15.3l3.5-10.2c5.9-17.8,29.1-92.9,41.3-137.3,22.8-83,42.6-159.4,38-191.1-1.8-12.8-18.6-22.6-31.5-20.9C292.4,395.4,267.9,411.8,270.7,441.1Z" style="fill:#183b59"/><path d="M544.5,777.4c.6-5.4-.7-20.2,0-24.2,2.5-16.2,14.5-23.1,22.7-20.9s16.2,7.4,21.7,11.4c9.8,7.2,19.2,22.1,17,25.2s-7.7-5-17.5-8.9a4.3,4.3,0,0,0-2.4-.6c-.7.2-.4,1.4-.2,2.9s1.6,5.9,5.6,13.9,6.2,18.2,3.6,19.5-8.5-5.3-13.2-14.8l-1.8-3.7c-1.1-2.6-2.7-.6-1.8,1.2s1.8,5.7,2.7,9c2.8,10.2,2.7,19.1-.2,19.9s-7.6-6.8-10.4-17c-.7-2.5-1.3-4.9-1.8-7.1-1-4-3.9-3.8-3-.5.4,1.3.7,2.6,1,4,2.5,10.3,2.1,19.2-.8,19.9s-7.1-7.1-9.6-17.4a78.8,78.8,0,0,1-1.9-13.5c-.2-1.4-1.4-.7-1.6.1a36,36,0,0,0-1,4.3c-1,7.7-3,15.6-5.5,15.3S543.5,786.3,544.5,777.4Z" style="fill:#ffe1d9"/><path d="M529.3,439c-4.5,47.8,32.7,224.6,53.4,286.4,1.2,3.6,2.4,6.9,3.4,10,3.5,10.2-39.9,27.6-44.1,15.3-.2-.6-1.4-4.2-3.5-10.2-5.9-17.8-29.1-92.9-41.3-137.3-22.8-83-42.6-159.4-38-191.1,1.8-12.8,18.6-22.6,31.5-20.9C507.6,393.3,532.1,409.7,529.3,439Z" style="fill:#183b59"/></svg>