<svg id="Layer_1" data-name="Layer 1" xmlns="http://www.w3.org/2000/svg" viewBox="0 0 800 1247"><rect width="800" height="1247" rx="20" style="fill:#fff"/><path d="M674.8,500.3h-242V110.2h242Zm-228-14h214V124.2h-214Z" style="fill:#74777b"/><rect x="480.5" y="155.5" width="146.6" height="299.62" style="fill:#e6e6e6"/><path d="M401.4,503.6h-265V324.2h265Zm-251-14h237V338.2h-237Z" style="fill:#74777b"/><rect x="173.9" y="361.5" width="190" height="104.83" style="fill:#e6e6e6"/><path d="M254.6,295.5H140.1V116.1H254.6Zm-100.5-14h86.5V130.1H154.1Z" style="fill:#74777b"/><rect x="170.8" y="149.2" width="53.2" height="113.21" style="fill:#e6e6e6"/><path d="M401.6,295.5H287V116.1H401.6ZM301,281.5h86.6V130.1H301Z" style="fill:#74777b"/><rect x="317.7" y="149.2" width="53.2" height="113.21" style="fill:#e6e6e6"/><circle cx="626.2" cy="590.4" r="27.9" style="fill:#b7a48f"/><path d="M662.3,528.9c-2.6,100.3-151.1,97.3-162.5-3.3-6.4-56.4,58.7-76.8,58.7-76.8s34.7-16.6,63.6,1.9C658.9,474.3,662.4,508.2,662.3,528.9Z" style="fill:#998675"/><path d="M488.2,809.9c2.3,10.2,3.8,26.1,1.9,28.7s-3.6,1.1-5.9-6.5-4.2-18.9-.1-21.6S488.2,809.9,488.2,809.9Z" style="fill:#ffe1d9"/><path d="M484.7,797.6s-18.2,26.3-17.6,30.4,8,27,9.6,26.9,1.8-7.2.6-13.3,5.9-10,9.7-19.4,6.4-26.4,6.4-26.4Z" style="fill:#ffe1d9"/><polygon points="491.3 805.5 486.2 815.7 480.2 811.6 483.5 801 491.3 805.5" style="fill:#ffe1d9"/><path d="M493.1,816.2l-12.9-4.6-8.3-5.6s0-.1.2-.4c.8-1.9,3.9-8.8,8.1-16.8l.3-.6c9.3-18,18.8-47.6,23.5-59.2,7.4-17.8,4.4-61.1,22.5-84.8,9.2-12.1,38-18.5,39.3-3.9S535,740.5,535,740.5l-30.8,57.1-2.3,3.8Z" style="fill:#0071bc"/><path d="M543.1,480c-46,22.5-18,53.2-32.7,73.3-5.2,7-6,21.1,2.2,36.4a69.5,69.5,0,0,0,5.7,8.4c5.8,7.6,18.3,15.9,26.1,18.2,20.9,6,58-13.3,72.9-39.7s1.5-88.2-40.2-100.8A41,41,0,0,0,543.1,480Z" style="fill:#ffe1d9"/><path d="M609,574.1c-33.2-24.9,28.7-56,32.2-34.9S618.7,581.4,609,574.1Z" style="fill:#ffe1d9"/><path d="M610.2,558.3a9.8,9.8,0,0,1,1.1-5.3,28,28,0,0,1,3-4.6,34.7,34.7,0,0,1,8.3-7,15.2,15.2,0,0,1,5.4-2.1,4.7,4.7,0,0,1,1.7-.1,3.7,3.7,0,0,1,1.9.7,2,2,0,0,1,.8.8,5.9,5.9,0,0,1,.4.8,4.7,4.7,0,0,1,.4,1.6,9.1,9.1,0,0,1-1.6,5.7,17.1,17.1,0,0,1-3.8,3.8,28.8,28.8,0,0,0,2.4-4.6,7.7,7.7,0,0,0,.5-4.4,2.5,2.5,0,0,0-.4-.9.8.8,0,0,0-.2-.4H630a3.7,3.7,0,0,0-1.4.1,16.2,16.2,0,0,0-4.3,1.9,47.2,47.2,0,0,0-8.1,6,23.8,23.8,0,0,0-3.5,3.6A11.8,11.8,0,0,0,610.2,558.3Z" style="fill:#edbbab"/><circle cx="621.1" cy="572.6" r="5.7" style="fill:#83dfff"/><g style="opacity:0.30000000000000004"><circle cx="620.5" cy="572" r="3.3" style="fill:#fff"/></g><path d="M557.9,545.6c-.3,3.3,1.4,12,11.9,12,16.8,0,13.5-15.7,13.5-15.7s-10.4,1.2-10.5.7S557.9,545.6,557.9,545.6Z" style="fill:#edbbab"/><path d="M557.9,523.3c3,.7,5.7,1,8.4,1.4l8,.9,8.1.5a63.1,63.1,0,0,0,8.7,0,20.9,20.9,0,0,0-7.5-4,30.7,30.7,0,0,0-8.5-1.8,37.9,37.9,0,0,0-8.9.2A26.3,26.3,0,0,0,557.9,523.3Z" style="fill:#666"/><path d="M530.8,548.1c-.7,5.8-6.7,9.5-13.2,7.7-5-1.3-4.4-9.8-3.9-9.8s14,.3,14,.3Z" style="fill:#edbbab"/><path d="M515.7,524.5l5-.2a33.9,33.9,0,0,0,4.5-.2,37.8,37.8,0,0,0,4.7-.6A22.3,22.3,0,0,0,535,522a13.2,13.2,0,0,0-4.9-2.7,18.7,18.7,0,0,0-5.3-.5,14.6,14.6,0,0,0-5.3,1.5A7.8,7.8,0,0,0,515.7,524.5Z" style="fill:#666"/><path d="M527.2,509.7a16.1,16.1,0,0,1,4.7-2.4,29.6,29.6,0,0,1,5.1-1.4,49,49,0,0,1,21.1.5,29.5,29.5,0,0,1,5,1.7,14.9,14.9,0,0,1,4.4,3,19.8,19.8,0,0,0-4.8-1.8,43.7,43.7,0,0,0-5-.9,87.6,87.6,0,0,0-10.2-.8c-3.4,0-6.8,0-10.2.3a44.3,44.3,0,0,0-5.1.6A40.5,40.5,0,0,0,527.2,509.7Z" style="fill:#edbbab"/><path d="M517.6,535a9.9,9.9,0,0,1-2.4-.3l-1.1-.3-.5-.3a.9.9,0,0,1-.3-.5.6.6,0,0,0,.1.6l.4.6,1,.9L517,537h0a1,1,0,0,0,1.4-.4,1,1,0,0,0-.4-1.4Z" style="fill:#a67c52"/><path d="M516.2,536.8h-1.5l-1.4-.2-1.5-.5a5.4,5.4,0,0,1-1.2-.9,2.9,2.9,0,0,0,.8,1.4,4.3,4.3,0,0,0,1.1,1.2l1.4,1.1.7.4.8.5a1.5,1.5,0,0,0,2-.6,1.6,1.6,0,0,0-.5-2.1l-.7-.2Z" style="fill:#a67c52"/><path d="M514.9,539.1l-1.6-.2-1.6-.4-1.6-.7a7.1,7.1,0,0,1-1.4-1,8.3,8.3,0,0,0,.9,1.6,8,8,0,0,0,1.3,1.3,7.9,7.9,0,0,0,1.5,1.2,9.5,9.5,0,0,0,1.7,1h0a1.5,1.5,0,0,0,2-.6,1.6,1.6,0,0,0-.6-2.1Z" style="fill:#a67c52"/><path d="M513.1,544.2c-.2,5.4,3.3,9.2,7.9,9.3s10-2.2,10.2-7.6-5.1-11-9.6-11.2S513.2,538.8,513.1,544.2Z" style="fill:#fff"/><path d="M516,551.7a10.3,10.3,0,0,1-2.1-9.6,14,14,0,0,1,1.5-3,10,10,0,0,1,2.3-2.3l.7-.3.7-.3,1.6-.3a12.1,12.1,0,0,1,6.5,1.5,8.5,8.5,0,0,0-2.9-2.4,7.7,7.7,0,0,0-3.7-.7,6.9,6.9,0,0,0-2,.3l-.9.4-.9.5a8.7,8.7,0,0,0-2.6,2.8,10.4,10.4,0,0,0-1.5,3.4,9.8,9.8,0,0,0,3.3,10Z" style="fill:#a67c52"/><circle cx="521.5" cy="545.3" r="7.1" style="fill:#8cc63f"/><circle cx="520" cy="546.1" r="5.2" style="fill:#2d1508"/><g style="opacity:0.5"><circle cx="524.1" cy="542.4" r="3.2" style="fill:#fff"/></g><path d="M553.5,575.9a5.2,5.2,0,0,1,2.5.2l2.3,1a18.8,18.8,0,0,1,3.9,2.9,21.7,21.7,0,0,1,3.1,3.7,15.9,15.9,0,0,1,2.2,4.3,22,22,0,0,1-3.7-3l-3.4-3.1-3.3-3.1a12.9,12.9,0,0,0-1.7-1.6Z" style="fill:#edbbab"/><path d="M528.8,575.7l-1.1,1.2-.9,1.2-1.7,2.6-2,2.5a17,17,0,0,1-2.3,2.4,12.4,12.4,0,0,1,.9-3.3,11.8,11.8,0,0,1,1.6-2.9,10.4,10.4,0,0,1,2.3-2.4l1.5-1A3.2,3.2,0,0,1,528.8,575.7Z" style="fill:#edbbab"/><path d="M528.8,584.2a18.8,18.8,0,0,0,7,3,36.4,36.4,0,0,0,7.4.7,47.8,47.8,0,0,0,7.6-.4,33.4,33.4,0,0,0,7.6-1.7,15.6,15.6,0,0,1-3.4,2.3,24.6,24.6,0,0,1-3.8,1.4,30.9,30.9,0,0,1-8,1.1,24.6,24.6,0,0,1-8-1.5,15.5,15.5,0,0,1-3.6-1.9A8.9,8.9,0,0,1,528.8,584.2Z" style="fill:#edbbab"/><path d="M539.9,548.3a20.6,20.6,0,0,1-2.1,4.8l-1.4,2.1c-.5.6-1,1.3-1.6,1.9a40.9,40.9,0,0,1-3.8,3.3,26.5,26.5,0,0,1-4.2,2.6h0a1.3,1.3,0,0,0-.6,1.8h.1a30.1,30.1,0,0,0,2.2,2.8,29.6,29.6,0,0,0,2.4,2.6,31.1,31.1,0,0,0,2.8,2.3,8.1,8.1,0,0,0,3.3,1.4,13.7,13.7,0,0,1-2.5-2.3l-2-2.7-2-2.8-2-2.8-.5,2a24.7,24.7,0,0,0,4.6-3.1,23.4,23.4,0,0,0,3.8-3.9,16.4,16.4,0,0,0,2.7-4.8A14.5,14.5,0,0,0,539.9,548.3Z" style="fill:#edbbab"/><path d="M577.9,535.7l1.7-.7,1.6-.9,1.4-1.2a3.3,3.3,0,0,0,1.1-1.5,3.3,3.3,0,0,1-1.4,1,4.3,4.3,0,0,1-1.6.5,4.5,4.5,0,0,1-1.6.3l-1.7.2h0a1.2,1.2,0,0,0-1.2,1.3,1.2,1.2,0,0,0,1.3,1.1Z" style="fill:#a67c52"/><path d="M581.8,537.8l.9-.4.9-.5.8-.6.8-.6a5.8,5.8,0,0,0,1.3-1.4,2.8,2.8,0,0,0,.7-1.7,4.1,4.1,0,0,1-1.2,1.1l-1.6.5H581a1.9,1.9,0,0,0-1.8,1.8A1.8,1.8,0,0,0,581,538Z" style="fill:#a67c52"/><path d="M583.3,540.9l1.2-.6,1.1-.6a9.5,9.5,0,0,0,2-1.5,12.9,12.9,0,0,0,1.6-1.7,8.8,8.8,0,0,0,1.2-2.1,6.2,6.2,0,0,1-1.8,1.4l-1.9,1-2.1.5h-2.1a1.7,1.7,0,0,0-1.7,1.9,1.8,1.8,0,0,0,1.9,1.6Z" style="fill:#a67c52"/><path d="M583,543.6c.1,5.9-4.5,10-10.4,10.1s-14.5-1-15-8.1c-.3-4.9,8.6-12.4,14.5-12.5A10.7,10.7,0,0,1,583,543.6Z" style="fill:#fff"/><path d="M575.8,553.4a10.5,10.5,0,0,0,4.6-2.3,9,9,0,0,0,3.1-4.3,11,11,0,0,0,.4-5.4,11.6,11.6,0,0,0-2.1-5,12.6,12.6,0,0,0-2-2l-1.3-.7-1.3-.5a14.1,14.1,0,0,0-5.4-.4,12.7,12.7,0,0,0-2.6.4,8.1,8.1,0,0,0-2.5.8,10.3,10.3,0,0,0-4.2,2.9,17.6,17.6,0,0,1,9.4-2.4,18.4,18.4,0,0,1,4.7.6l1.1.4.9.5a8.1,8.1,0,0,1,1.6,1.6,11.7,11.7,0,0,1,2,4.2,10.2,10.2,0,0,1,0,4.6,8.5,8.5,0,0,1-.9,2.2,13.3,13.3,0,0,1-1.4,1.9A16.9,16.9,0,0,1,575.8,553.4Z" style="fill:#a67c52"/><circle cx="569.8" cy="544.2" r="8" style="fill:#8cc63f"/><circle cx="568.1" cy="545.3" r="5.7" style="fill:#2d1508"/><g style="opacity:0.5"><circle cx="573.8" cy="540.8" r="3.3" style="fill:#fff"/></g><path d="M571.7,636.4h-5.3c-1.7.1-6.6-.2-6.7-1.9l1.4-27.8,26.3-5.4v35.3C593.6,641.5,573.4,636.4,571.7,636.4Z" style="fill:#ffe1d9"/><path d="M520.5,939c0,1.2-3.6,132.5-5.7,139.2-4.7,15.5-42,29.4-36.4,37.6s58.7-22.3,58.7-22.3-3.7.3-3-12.6,39.6-111.5,34.5-131.5S520.5,939,520.5,939Z" style="fill:#ccc"/><path d="M466.2,1124.9s44,3.4,47.1-.9,10.7,1,10.7,1l17.2-.2a29.7,29.7,0,0,0,2.7-6.8,23.9,23.9,0,0,0-1.3-16.8c-2.9-5.9-4.3-9.9-4.8-13.2s-9.4-4-18.1-3.5c-6.9.3-13.6,10.6-18.2,13.7s-19.3,6.5-24.5,8.4c-6.8,2.5-9.4,11-10.4,15.5C466.3,1123.8,466.2,1124.9,466.2,1124.9Z" style="fill:#998675"/><path d="M466.2,1124.9s44,3.4,47.1-.9,10.7,1,10.7,1l17.2-.2a29.7,29.7,0,0,0,2.7-6.8c-15.3.8-27.1-1.8-30.5.5s-32.5,4.4-46,3.7h-.8C466.3,1123.8,466.2,1124.9,466.2,1124.9Z" style="fill:#666"/><path d="M588.5,1128c2.1,3.8,22.5,2.6,27.3,1.1a11.1,11.1,0,0,0,6.5-4.8,11.5,11.5,0,0,0,8.1-3.5c1.2-1.2,2.3-5.1,3.1-10.1,1.8-11,2.2-27.3-1.4-33.5,0,0-12.5-.4-18.7,4s-12,18.1-15.9,24.4c-3,4.7-7.8,13.1-9.1,18.4A5.8,5.8,0,0,0,588.5,1128Z" style="fill:#998675"/><path d="M584.2,929.7s7.3,13.5,6,22.2,17.7,99.4,19.8,118.6-6.7,28.4-6.2,32.6,18.7,3.3,22.6-2,4.9-13.6,3.9-21.6,10.7-85.6,6.9-106.6-8.8-42.8-8.8-42.8Z" style="fill:#ccc"/><path d="M632.1,1077.2c-7.6,1.3-5.7,23.3-10.9,29.9s10.8-3,10.8-3Z" style="fill:#998675"/><path d="M588.5,1128c2.1,3.8,22.5,2.6,27.3,1.1a11.1,11.1,0,0,0,6.5-4.8,11.5,11.5,0,0,0,8.1-3.5c1.2-1.2,2.3-5.1,3.1-10.1-3.4,4.6-7.8,9.4-10.7,9.8s-5.2,5.7-18,6.2a40.2,40.2,0,0,1-16.4-2.7A5.8,5.8,0,0,0,588.5,1128Z" style="fill:#666"/><path d="M645.5,1056.9s-8,1.7-19.7,3.5c-21,3.4-54.1,8.3-74.2,6.4-36.6-3.4-47.3-5.3-47.9-7.9s.5-118.6,4.4-198.7c1-20.7,2.2-38.8,3.7-51.9a31.1,31.1,0,0,1,.4-3.2c.3-3.1.8-6.1,1.2-9.1,1.9-11.9,4.1-22.7,5.8-32.6v-.3c.6-3.1,1-6.2,1.4-9.2,0-.3.1-.7.1-1,1-7.9,85.9-6.7,89.1-3.1,12.4,13.8,25.6,45.4,30.7,94.6,4.7,44.6,3,185.2,3.1,187.4v.9C644.4,1050.8,645.5,1056.9,645.5,1056.9Z" style="fill:#004472"/><path d="M645.5,1056.9s-8,1.7-19.7,3.5c-9.7-39.3-10.5-164.3-117.7-200.2,1-20.7,2.2-38.8,3.7-51.9,2.8-16.8,5.7-33.9,7.4-44.9v-.3c.7-3.9,1.1-7.1,1.4-9.2,0-.3.1-.7.1-1,1-7.9,85.9-6.7,89.1-3.1,12.4,13.8,25.6,45.4,30.7,94.6,4.7,44.6,3,185.2,3.1,187.4v.9C644.4,1050.8,645.5,1056.9,645.5,1056.9Z" style="fill:#003356"/><path d="M644.2,831.1s-14.1,3.9-26.8,6.6l-9.7,1.8c-15.4,2.3-48.8,6-87.2-2.4-6-1.3-14-6-14-6s4.1-67.3,7.6-83.9-5.5-63.8,1.4-79.3,20.2-33.9,23.6-35.1,17.2-3.3,17.2-3.3l-.9,1.6c1.3-.3,1.7-1.1,1.8-3.5.1-4.3-2.5-7.9,2.5-8.8s15.2,2.6,23.9-1.1,14.1-7,12.9-.5c-.7,4-3.6,7.3-1.2,9.2l.5-.4s27.9.9,34.1,5.4,8.3,21.9,7.5,31.7a113.9,113.9,0,0,1-2.2,12.2c-4.4,21.7-14.4,62.4-15.4,70.2v.3C619,756.7,644.2,831.1,644.2,831.1Z" style="fill:#004472"/><path d="M644.2,831.1s-14.1,3.9-26.8,6.6c-5.3-27.1-13.3-87.2-13.5-92.6-.3-9.3,10.4-70.6,31.3-69.8-4.4,21.7-14.4,62.4-15.4,70.2v.3C619,756.7,644.2,831.1,644.2,831.1Z" style="fill:#003356"/><path d="M688.4,832.5l-7.9-9.9c-3.6-4.6-8.3-7.6-11.9-3.7-5.7,5.3-7.3,20.9-5.8,26.5.5,1.6,2-1.6,3.3-7.7s1.8,15.4,6,15.1c1.8.3.8-7.4.1-11.5-.2-1.3,2.4-.8,2.5.2.6,3.5,4.1,13.4,6.3,12.4s2-2.6.5-7.5c-.3-1.2-1.2-4.4-1.5-5.5s.6-2.5,1-.9c1,3.9,4.5,10.8,6,9.8s-1-12.7-3-15.5c-.2-1.7,2,.9,2.2,1.1C692.9,843.8,695.1,840.6,688.4,832.5Z" style="fill:#ffe1d9"/><polygon points="675.3 812.3 677.4 823.6 670.1 823.9 666.3 813.6 675.3 812.3" style="fill:#ffe1d9"/><path d="M683.1,819.8l-13,4.1-10,.7a1.8,1.8,0,0,0-.1-.5c-.5-2-2.2-9.3-3.8-18.3a2,2,0,0,0-.1-.7c-3.5-19.9-13.9-49.1-17.1-61.2-5-18.7-33.6-51.3-33.7-81.1,0-15.3,19.1-37.8,29-27s36.2,98.3,36.2,98.3l10.1,64.2.6,4.4Z" style="fill:#0071bc"/><circle cx="554.5" cy="630.2" r="3.4" style="fill:#83dfff"/><g style="opacity:0.30000000000000004"><circle cx="554.1" cy="629.8" r="2" style="fill:#fff"/></g><circle cx="559.3" cy="634.5" r="3.4" style="fill:#83dfff"/><g style="opacity:0.30000000000000004"><circle cx="558.9" cy="634.1" r="2" style="fill:#fff"/></g><circle cx="565.7" cy="635.8" r="3.4" style="fill:#83dfff"/><g style="opacity:0.30000000000000004"><circle cx="565.3" cy="635.4" r="2" style="fill:#fff"/></g><circle cx="572.6" cy="635.4" r="3.4" style="fill:#83dfff"/><g style="opacity:0.30000000000000004"><circle cx="572.2" cy="635.1" r="2" style="fill:#fff"/></g><circle cx="579.3" cy="634.4" r="3.4" style="fill:#83dfff"/><g style="opacity:0.30000000000000004"><circle cx="578.9" cy="634.1" r="2" style="fill:#fff"/></g><circle cx="585.6" cy="632.5" r="3.4" style="fill:#83dfff"/><g style="opacity:0.30000000000000004"><circle cx="585.2" cy="632.1" r="2" style="fill:#fff"/></g><circle cx="591.6" cy="629.7" r="3.4" style="fill:#83dfff"/><g style="opacity:0.30000000000000004"><circle cx="591.2" cy="629.4" r="2" style="fill:#fff"/></g><circle cx="597" cy="626.4" r="3.4" style="fill:#83dfff"/><g style="opacity:0.30000000000000004"><circle cx="596.6" cy="626" r="2" style="fill:#fff"/></g><circle cx="553.5" cy="645.4" r="3.4" style="fill:#83dfff"/><g style="opacity:0.30000000000000004"><circle cx="553.1" cy="645" r="2" style="fill:#fff"/></g><circle cx="558.9" cy="648.7" r="3.4" style="fill:#83dfff"/><g style="opacity:0.30000000000000004"><circle cx="558.5" cy="648.3" r="2" style="fill:#fff"/></g><circle cx="547.6" cy="633.2" r="3.4" style="fill:#83dfff"/><g style="opacity:0.30000000000000004"><circle cx="547.4" cy="632.7" r="2" style="fill:#fff"/></g><circle cx="549.8" cy="639.6" r="3.4" style="fill:#83dfff"/><g style="opacity:0.30000000000000004"><circle cx="549.6" cy="639.1" r="2" style="fill:#fff"/></g><circle cx="565.3" cy="650.1" r="3.4" style="fill:#83dfff"/><g style="opacity:0.30000000000000004"><circle cx="564.9" cy="649.7" r="2" style="fill:#fff"/></g><circle cx="572.2" cy="650.1" r="3.4" style="fill:#83dfff"/><g style="opacity:0.30000000000000004"><circle cx="571.8" cy="649.7" r="2" style="fill:#fff"/></g><circle cx="578.8" cy="649.1" r="3.4" style="fill:#83dfff"/><g style="opacity:0.30000000000000004"><circle cx="578.4" cy="648.7" r="2" style="fill:#fff"/></g><circle cx="585.2" cy="647.1" r="3.4" style="fill:#83dfff"/><g style="opacity:0.30000000000000004"><circle cx="584.8" cy="646.7" r="2" style="fill:#fff"/></g><circle cx="591.2" cy="643.8" r="3.4" style="fill:#83dfff"/><g style="opacity:0.30000000000000004"><circle cx="590.8" cy="643.4" r="2" style="fill:#fff"/></g><circle cx="596.1" cy="639.6" r="3.4" style="fill:#83dfff"/><g style="opacity:0.30000000000000004"><circle cx="595.7" cy="639.2" r="2" style="fill:#fff"/></g><circle cx="600.7" cy="634.5" r="3.4" style="fill:#83dfff"/><g style="opacity:0.30000000000000004"><circle cx="600.2" cy="634.2" r="2" style="fill:#fff"/></g><circle cx="604.8" cy="629.1" r="3.4" style="fill:#83dfff"/><g style="opacity:0.30000000000000004"><circle cx="604.4" cy="628.8" r="2" style="fill:#fff"/></g><g style="opacity:0.1"><ellipse cx="569.2" cy="546.2" rx="16" ry="17.2" transform="translate(-56.4 1026.8) rotate(-81.4)" style="fill:aqua"/></g><path d="M569.5,564.3a15.3,15.3,0,0,1-3-.3c-10.5-1.6-17.7-10.8-16.2-20.7h0a17.3,17.3,0,0,1,7.5-11.7,19.5,19.5,0,0,1,14.1-3.2c10.4,1.6,17.7,10.9,16.2,20.7S578.7,564.3,569.5,564.3Zm-15.3-20.4c-1.2,7.7,4.6,15,12.9,16.2s15.9-3.9,17.1-11.6-4.6-14.9-12.9-16.2a16,16,0,0,0-11.3,2.5,13.4,13.4,0,0,0-5.8,9.1Z" style="fill:#d4145a"/><g style="opacity:0.1"><ellipse cx="519.4" cy="542.9" rx="15" ry="16.1" transform="translate(-95.5 974.8) rotate(-81.4)" style="fill:aqua"/></g><path d="M519.7,559.9a14.6,14.6,0,0,1-2.9-.2,18.3,18.3,0,0,1-11.8-6.8,16.3,16.3,0,0,1-3.4-12.7c1.4-9.3,10.5-15.6,20.4-14.1s16.6,10.3,15.2,19.5S528.4,559.9,519.7,559.9Zm-.6-30c-6.8,0-12.6,4.5-13.6,10.9h0a12.7,12.7,0,0,0,2.6,9.7,15.2,15.2,0,0,0,9.3,5.3c7.7,1.2,14.8-3.7,15.9-10.8s-4.3-13.8-11.9-15Z" style="fill:#d4145a"/><path d="M551.6,547.1c-4.7-2.8-11.1-4.5-15-.5L534,544c4.5-4.6,12-4.6,19.5,0Z" style="fill:#d4145a"/><path d="M586.3,548.5a1.9,1.9,0,0,1-1.7-1.3,1.8,1.8,0,0,1,1.2-2.3c16.6-5.6,33.8-9.6,34-9.6a1.8,1.8,0,0,1,2.2,1.3,1.9,1.9,0,0,1-1.3,2.3c-.2,0-17.3,4-33.8,9.5Z" style="fill:#d4145a"/><path d="M612.3,562.2c-.3,1,6.2-28.6,3.3-43S612,509,612,509l.3,15.7-31.7-.3-1.1-17.5-4,17-40.4-3.7,3.1-23-11.1,22.5s-21.9-8.1-25.8-15.9a8.1,8.1,0,0,1-.9-2.9c-1.8-17.7,21-59.3,68.5-53.6,32.4,3.9,47.5,16.9,54.6,30.4C652.3,533.3,617.4,543.2,612.3,562.2Z" style="fill:#b7a48f"/><path d="M623.5,477.7c-2.3-.9-4.8-2.1-7.4-3.3-37.4-17.6-84.8-9.8-114.8,29.4a8.1,8.1,0,0,1-.9-2.9c-1.8-17.7,21-59.3,68.5-53.6C601.3,451.2,616.3,464.2,623.5,477.7Z" style="fill:#d6bfaa"/><path d="M316.7,826.6c.2-2.6.7-10.7.9-12.7.3-5.8,2.4-10.9,7.6-9.8,7.7,1.1,18,12.9,19.9,18.4.6,1.5-2.6-.1-7.1-4.4s7.3,13.6,3.7,15.8c-1.3,1.2-4.9-5.6-6.6-9.3-.6-1.3-2.5.6-2,1.5,1.6,3.2,4.4,13.3,2,13.8s-3.1-1.1-4.8-5.9c-.4-1.2-1.5-4.3-1.8-5.3s-2-1.8-1.4-.2c1.5,3.8,2.5,11.4.7,11.5s-6.4-11.1-6.4-14.5c-.8-1.5-1.1,1.9-1.2,2.2C319.5,838.4,315.9,837,316.7,826.6Z" style="fill:#ffe1d9"/><polygon points="314.7 799 319.4 809.4 325.5 805.5 322.8 794.9 314.7 799" style="fill:#ffe1d9"/><path d="M314.9,808.6l17.8-7.6s-3.4-7.1-8-17c-8.6-18.3-21.7-46.5-26-58.3-6.6-18.1-3.4-71.3-21.4-95.1-4.6-6-28.3-14.3-30.2.3s26.6,101.3,26.6,101.3l32.5,60.3Z" style="fill:#ff5a5a"/><path d="M314.9,808.6l17.8-7.6s-3.4-7.1-8-17c-5.6,4.3-13.6,7-18.5,8.5Z" style="fill:#e13"/><path d="M303.7,798c-2.3,2.5,1.8,4.9,3.5,7.7s.9,5.9,3.2,7.5c4.6,3.3,24.8-5.8,26.7-10.5s-2.2-4.2-2.8-10c-1-8.2-4.1-7.4-12.3-1.6S307.1,794.4,303.7,798Z" style="fill:#ff5a5a"/><path d="M262.5,936.5l22.4-10.2c-1,25.8-10.4,89.4-11.4,133.7,0,3.5.8,14.9,1.1,16.8a42.6,42.6,0,0,0,2.6,8.8q2.7,6.8,5.7,13.2c1,2.2,2.1,4.4,3.1,6.5s14.9,6,16.7,8.7l1.4,1.2c1.5,2.2-1.7,6.4-4.5,6.5l-24.2,1c-3.3,0-7.3-4.6-8.8-7.6-2.6-5.4-9.9-12.3-9.9-12.3l-.3,19.9H255s-.9-6.4-1.8-11.7-2.8-14.9-2.5-18.1c.6-4.7,3.2-9,5.1-12.5a26.1,26.1,0,0,0,2.4-7c-2.9-28.7-9.8-53.9-10.7-71.1C246.2,979.5,262.5,936.5,262.5,936.5Z" style="fill:#ffe1d9"/><path d="M278.7,1088c-3.4,2.5-10,2.8-10,2.8l16.2,18.1,1.1-3.6Z" style="fill:#ed1e79"/><path d="M248.6,1098.3c.7,3,1.6,6.6,2.1,9.5,1.6,8.6,2.1,15.3,2.1,15.3h5s3.4-14.1,4.3-12.6a2.1,2.1,0,0,0,.4.6h0c2.1,3.2,8.1,11,10.3,11.6s3.6.2,5.5.3c12.1.5,26.1.3,32,.3a4.9,4.9,0,0,0,3.1-.9,3.2,3.2,0,0,0,.4-3.4,7.7,7.7,0,0,0-1.9-2.8c-2-2-8-4.8-12.6-6.5-2.4-1-9.6-2.6-13.3-4.4.2.3-.3.8-1.2,1.4-3.6-6.6-12.8-20.5-28.3-27.9l-4.4,6c-2.1,2.3-4.3,5-4.6,7.9A27.4,27.4,0,0,0,248.6,1098.3Z" style="fill:#3939bc"/><path d="M248.6,1098.3c.7,3,1.6,6.6,2.1,9.5,1.6,8.6,2.1,15.3,2.1,15.3h5s3.4-14.1,4.3-12.6a2.1,2.1,0,0,0,.4.6A29.1,29.1,0,0,0,248.6,1098.3Z" style="fill:#2828a3"/><path d="M187.3,990.6c2-7,5.8-14.4,6-21.8.2-10,35.2-28.7,31.3-8.2-3,16.2-5.9,32.6-7.1,49.1s-3.6,25.7-5.7,43.3c-.6,4.9-1.1,8.7-1.5,13.2s.9,12.7,1,13.7a50,50,0,0,1,.5,6c.1,2.7-.5,3.8.4,6.6s6.3,26.1,5.7,27.7-9.2,10.1-13.4,10.2-13.2-6.4-15-9.2,1.2-7.5,1.5-9.5c0-.5.2-1.8.4-3.6.7-5,1.9-13.5,1.9-14.5s-.1-3.3-.1-3.3c-.2-4.5,1-9.2,1.1-10.7a18.7,18.7,0,0,0,.2-2.4c-3.3-20-8.8-34-11-54.5C182.4,1011.8,184.2,1001,187.3,990.6Z" style="fill:#ffe1d9"/><path d="M218.5,1112.6a123,123,0,0,0-3.8-12.6c-.6-2.1-1.3-4.2-1.9-6.2a11.5,11.5,0,0,1-1-3.5c.1,1.7,1.9,10.4,2.4,13s.5,2.8.7,4.2.8,3.1.3,4.2a6,6,0,0,1-2.7,2,20.2,20.2,0,0,1-3.4,1.4,14.6,14.6,0,0,1-4.5,1,13.4,13.4,0,0,1-4.5-.9,31.2,31.2,0,0,1-4.6-1.7,4.9,4.9,0,0,1-3.1-4.4,29.1,29.1,0,0,1,.1-5.9c.2-2.8.6-5.7.7-8.5a7.5,7.5,0,0,0,0-1.5c-.2,1.7-3.2,16.3-3.3,17.2s-2.3,8.1-.4,10.9,10.8,9.3,15,9.2c2.6,0,5.3-1.7,7.6-3.1s5.9-4.1,6.6-5.5a8.1,8.1,0,0,0,.6-3.5A38.5,38.5,0,0,0,218.5,1112.6Z" style="fill:#3939bc"/><path d="M210.3,1088.5c-5.1-3.5-13.4,0-13.4,0l2.4,16.3,4.7.9,4.8-1.1Z" style="fill:#ed1e79"/><path d="M215.3,1105.7c-9.1-3.6-23.5,0-23.5,0l2.1,11.1,11.5,3.7,5.5-2.8,5.7-3.6Z" style="fill:#3939bc"/><path d="M201.4,1106.7c-2.1-14.3-8.2-28.4-8.2-28.4v15.3l-1,12.9Z" style="fill:#3939bc"/><path d="M211.9,1078.3s-2.9,7.5-3.3,10.2-1.1,15.9-1.1,15.9l7.1,1.1-2.8-15.2Z" style="fill:#3939bc"/><path d="M155.2,545.7c11.8,34.5,13.9,49,46.4,53.4,10.4,1.5,24,1.9,42.1,1.5,16-.2,30.3-3.9,42.5-11.1a74.3,74.3,0,0,0,20.9-18.8c11.3-14.9-.1-32,5.5-51.8,14.3-50.9-19.6-74-53-85.4-5.1-1.7-3.1-3.6-8.6-4.3-3.2-.4-7.6.4-11,.4s-20.8-6.6-46.7,8.2C155,459.6,144.4,513.9,155.2,545.7Z" style="fill:#1a1a1a"/><path d="M201.6,599.1c10.4,1.5,24,1.9,42.1,1.5,16-.2,30.3-3.9,42.5-11.1,14-12.6,18.3-26.1,16.1-39.3-3.2-19.8,4.3-22.3,3.9-50.1s-17.8-50.6-49.8-58.6-72.5,8.4-83.7,39.9S154.8,570.7,201.6,599.1Z"/><path d="M235.5,622.4h5.2c1.8.1,6.7-.2,6.7-1.9L246,592.7l-26.3-5.4v35.3C213.6,627.4,233.7,622.3,235.5,622.4Z" style="fill:#ffe1d9"/><path d="M184.7,924.9c.3,3.4.5,6.8.8,10.1s.7,9.2,1,13.3.6,7.2.8,10.2l1.3,16.1s4.8.8,12,1.7c13.5,1.7,35.5,3.9,51.8,2.5,24.5-2.2,32.6-3.8,32.6-3.8s.7-6.6.8-15.7v-.5c0-3.5.1-6.9.2-10.2l.6-12.4.6-10.1c2.7-38.1,8.1-71.1,5.6-108.9-1.6-24.1-6.3-50.2-16.9-80.8-2.7-7.6,18.5-45.5,18.4-69.7-.1-5.4-5.3-13.9-11.3-21.9-7.2-9.8-15.6-18.8-16.8-20.3s-6-3.2-9.9-4.1a62.8,62.8,0,0,0-6.6-1.1L226,617.7a97.7,97.7,0,0,0-15.2,3.4c-6.5,2-17.6,5.1-19.6,7.7s-2.5,5.1-3.4,8.9a85.1,85.1,0,0,0-1.8,10.5q-.5,3.3-.6,6.3a23.5,23.5,0,0,0,2.2,11.4l25.1,52.8a31.8,31.8,0,0,1-3.5,29.6c-10.3,14.8-30.1,52.8-30.2,69.8C178.8,839,182,887.4,184.7,924.9Z" style="fill:#ff5a5a"/><path d="M273.5,471.8c46.1,22.5,18.1,53.2,32.8,73.3,5.1,7,2.1,20-6.1,35.3-5.2,9.5-12.8,23.6-23.7,26.8-20.8,6-62.3-12.5-77.1-38.8s-1.5-88.2,40.2-100.8A40.7,40.7,0,0,1,273.5,471.8Z" style="fill:#ffe1d9"/><path d="M207.7,565.9c33.1-24.9-28.7-56-32.3-34.9S198,573.2,207.7,565.9Z" style="fill:#ffe1d9"/><path d="M206.4,550.1a8.9,8.9,0,0,0-1.1-5.3,22.7,22.7,0,0,0-3-4.6,31.2,31.2,0,0,0-8.3-7,15.2,15.2,0,0,0-5.4-2.1,4.6,4.6,0,0,0-1.7-.1,3.7,3.7,0,0,0-1.9.7,3,3,0,0,0-.8.8c-.2.3-.2.6-.4.8a9.4,9.4,0,0,0-.4,1.6,8.7,8.7,0,0,0,1.7,5.6,12.9,12.9,0,0,0,3.8,3.9,22.5,22.5,0,0,1-2.4-4.6,7.8,7.8,0,0,1-.6-4.4,2.5,2.5,0,0,1,.4-.9.8.8,0,0,0,.2-.4.1.1,0,0,0,.1-.1,2.7,2.7,0,0,1,1.5.1,16.2,16.2,0,0,1,4.3,1.9,51.4,51.4,0,0,1,8.1,6,39.8,39.8,0,0,1,3.5,3.6A12.2,12.2,0,0,1,206.4,550.1Z" style="fill:#edbbab"/><circle cx="195.5" cy="564.4" r="5.7" style="fill:#fccc2d"/><g style="opacity:0.30000000000000004"><circle cx="196.2" cy="563.8" r="3.3" style="fill:#ff0"/></g><path d="M289.1,576.3c2,5.2-4,9.7-12.4,8.3s-12.8-8.7-12.8-8.7Z" style="fill:#f9538f"/><path d="M289.1,576.3c.2-1,.3-4.9-3-5.6-1.6-.3-2.5,1.3-2.8,1.2s-.8-.9-3.1-1.1-7.5,1.6-10.5,2.7l-5.8,2.4s13.4,2.6,19.7,2.1C287.9,577.6,289.1,576.3,289.1,576.3Z" style="fill:#ff618b"/><path d="M275.9,536.3a33.2,33.2,0,0,1,5.5,4.4c1.7,1.7,3.2,3.5,4.7,5.3a59.8,59.8,0,0,1,4.2,5.7c1.3,2,2.6,3.9,3.8,6h0a1.4,1.4,0,0,1-.5,1.9h-.1l-2.8,1.3-2.8,1c-1,.4-2,.6-3,.9l-3,.5A55.4,55.4,0,0,1,287,560a22,22,0,0,1,2.6-1.5l2.6-1.4-.6,2c-2.3-4-4.8-7.9-7.3-11.7-1.3-2-2.6-3.9-4-5.7A57.5,57.5,0,0,0,275.9,536.3Z" style="fill:#edbbab"/><path d="M258.7,515.1c-3,.7-5.7,1-8.4,1.4l-8,.9-8.1.5a82.1,82.1,0,0,1-8.6,0,20.5,20.5,0,0,1,7.4-4,30.7,30.7,0,0,1,8.5-1.8,37.8,37.8,0,0,1,8.9.2A23.3,23.3,0,0,1,258.7,515.1Z"/><path d="M229.5,537.6s7.9,4.7,16.5,4.8,15.2-3.1,15.2-3.1-2.5-14.4-18.1-12.7C230.9,527.9,229.5,537.6,229.5,537.6Z" style="fill:#fff"/><circle cx="247.5" cy="534.9" r="7.5" style="fill:#333"/><circle cx="249.1" cy="535.6" r="5.4"/><g style="opacity:0.5"><circle cx="242.5" cy="531.2" r="3.1" style="fill:#fff"/></g><path d="M261.2,539c-4-9.8-14.1-9.6-18.8-8.6-6.5,1.5-14.2,8.1-14.2,8.1a14.6,14.6,0,0,1,6.4-9.5c5.7-3.7,12.6-4.2,16.3-2.6C261.4,530.7,261.2,539,261.2,539Z" style="fill:#edbbab"/><path d="M228.6,538.4a14.7,14.7,0,0,1,5.3-5.8,22.4,22.4,0,0,1,7.4-2.9,21.6,21.6,0,0,1,8-.3c2.6.5,5.4,1.5,7.1,3.5a16.9,16.9,0,0,0-7.3-1.6,36.1,36.1,0,0,0-7.3.7,30.2,30.2,0,0,0-7,2.3A24.7,24.7,0,0,0,228.6,538.4Z"/><path d="M234.4,532.3a36.5,36.5,0,0,1-2.4-3.1l-1-1.7a2.5,2.5,0,0,1-.2-1.9,2.2,2.2,0,0,0,.8,1.5l1.4,1.1,3.2,1.7a1.5,1.5,0,0,1-1.3,2.7Z"/><path d="M230.7,534.5a13.3,13.3,0,0,1-3.5-6.2,4.4,4.4,0,0,1,.1-2.3,4.8,4.8,0,0,0,.9,1.9,6.4,6.4,0,0,0,1.5,1.3,14.8,14.8,0,0,0,3.5,1.9,2.2,2.2,0,0,1,1.2,2.9,2.2,2.2,0,0,1-2.9,1.2l-.8-.6Z"/><path d="M227.6,536.4a18.4,18.4,0,0,1-1.7-2.2c-.5-.8-1-1.6-1.4-2.4a25.8,25.8,0,0,1-.8-2.6,11.5,11.5,0,0,1-.1-2.6,6.5,6.5,0,0,0,1.1,2.2,13.7,13.7,0,0,0,1.6,1.8,12.4,12.4,0,0,0,1.8,1.4l2.1,1a2.2,2.2,0,0,1,1,2.9,2.2,2.2,0,0,1-2.9,1.1,1.9,1.9,0,0,1-.7-.6Z"/><path d="M300.9,516.3l-5-.2a33.9,33.9,0,0,1-4.5-.2l-4.7-.6a21.6,21.6,0,0,1-5-1.5,12.1,12.1,0,0,1,4.8-2.7,18.7,18.7,0,0,1,5.3-.5,14.6,14.6,0,0,1,5.3,1.5A7.8,7.8,0,0,1,300.9,516.3Z"/><path d="M302,532.1c.4,4.4-3,7.7-8.4,7.9a23.3,23.3,0,0,1-10-2s2.8-10,8.1-11.1S301.4,527.2,302,532.1Z" style="fill:#fff"/><circle cx="294.5" cy="533.2" r="6.1" style="fill:#333"/><circle cx="295.7" cy="533.8" r="4.4"/><g style="opacity:0.5"><circle cx="292.2" cy="530.7" r="2.7" style="fill:#fff"/></g><path d="M283.6,538c2-5.4,5.8-7.9,11.3-8.3s7.2,2.8,7.2,2.8,1.1-4.3-5.5-5.9C286,524,283.6,538,283.6,538Z" style="fill:#edbbab"/><path d="M285.8,534.1a10.4,10.4,0,0,1,3.2-3.7,11.2,11.2,0,0,1,4.7-1.8,8.7,8.7,0,0,1,5,.6,7.5,7.5,0,0,1,3.6,3.2,13.8,13.8,0,0,0-4.1-1.9,12.5,12.5,0,0,0-4.3-.2,16.9,16.9,0,0,0-4.2,1.3A28.4,28.4,0,0,0,285.8,534.1Z"/><path d="M296.8,527.4l2.4-1.4,1.1-.9a2.2,2.2,0,0,0,.6-1.3,1.8,1.8,0,0,1-.1,1.6,4.6,4.6,0,0,1-.7,1.4,22.7,22.7,0,0,1-1.8,2.5h0a1.3,1.3,0,0,1-1.8.1,1.2,1.2,0,0,1-.1-1.7C296.5,527.6,296.6,527.4,296.8,527.4Z"/><path d="M299.5,527.3a12.5,12.5,0,0,0,2.8-1.5,6.3,6.3,0,0,0,1.1-1.2,2.5,2.5,0,0,0,.6-1.5,2.8,2.8,0,0,1,.2,1.8,4.5,4.5,0,0,1-.5,1.9,5.6,5.6,0,0,1-.9,1.7,9.1,9.1,0,0,1-1.1,1.6h-.1a1.8,1.8,0,1,1-2.8-2.2A1.3,1.3,0,0,1,299.5,527.3Z"/><path d="M302,529.2a6.5,6.5,0,0,0,1.6-.9l1.4-1.1a6.7,6.7,0,0,0,1.9-3.4,8,8,0,0,1-.4,4.3,7.5,7.5,0,0,1-1,2,13.3,13.3,0,0,1-1.4,1.9h0a1.8,1.8,0,0,1-2.7-2.3A1.5,1.5,0,0,1,302,529.2Z"/><path d="M296.1,441.5c27,27.7-5.9,54.9-32.2,57.9s-36.4-10.4-38.3,5.9,2.5,29.1-8.2,32.7,2.5,12.7,0,21.2-4.3,8.8-4.3,8.8,2.5-5.3-2.1-11.6-20.2-7-19.8-18.4,6.9-10.8,2.1-17.8S179,493.4,189.8,480s23.9-13.2,27.6-31.7S269.2,413.9,296.1,441.5Z" style="fill:#1a1a1a"/><path d="M210.8,621.1c2.8,7.9,48.2,24.5,45.5-.7a62.8,62.8,0,0,0-6.6-1.1L226,617.7A97.7,97.7,0,0,0,210.8,621.1Z" style="fill:#e13"/><path d="M267.8,437.4c-.5,15.8-13.4,30.3-29.5,30.7-7.1.1-15.1-2.5-21.3,2.5-11.9,9.9,1.6,31-3.8,41.6-3.7,3.8-8.8,6.8-13,10.1s-7.4,5.4-9.1,9.6c-1.7,5.9,1.9,13,7.4,15.5-4.3-2.9-7.1-9.5-4.9-14.4s8.9-6.7,13.3-9.5,10.4-5.2,12.7-10.4c5.1-10.1-4.6-30,1.9-36.9,3.2-2.4,8-1.7,11.8-1.4a36.1,36.1,0,0,0,10.9-1.1C259.8,469.8,271.1,453.3,267.8,437.4Z" style="fill:#2e2e49"/><path d="M237.1,440.3c-9.6,7.5-24.2,2.3-35,7.9-4.4,2.1-7.1,6.8-7.7,11.5-2.5,13.7,6.4,27.8.1,40.6-3.4,6.9-10.7,12.6-18.8,11.4,10.6,4.8,22.3-4.3,25.7-14.3s0-20.5-.7-30.2c-.1-4.9-.5-11.1,4.3-13.8C214.8,447.7,229.9,450.5,237.1,440.3Z" style="fill:#2e2e49"/><path d="M175.5,568.5c-21.6.5-36,22.7-25.1,31.4s-2.6,7.6,5.9,18.6,22.9,14.6,23.2,6.3.5,4.3,10.6,0,30.9-23.5,14.4-41.9S175.5,568.5,175.5,568.5Z"/><path d="M169.4,578.5a13.6,13.6,0,0,0-5.3-1.1,14.5,14.5,0,0,0-5.5,1,14.3,14.3,0,0,0-4.9,3.2,11.2,11.2,0,0,0-3.1,5.4,10,10,0,0,0,.9,6.5l.9,1.4.9,1.2,2,2.1,2.1,1.8,2.4,1.6L162,603l1.6,1.1v.2c0,.1.1.2,0,.4v.9a5.1,5.1,0,0,0-.3,1.7,15,15,0,0,0,0,3c.1,1,.3,2,.5,3a14.8,14.8,0,0,0,1.2,2.9,12.1,12.1,0,0,0,2,2.6,7.6,7.6,0,0,0,3.2,1.7,4.7,4.7,0,0,0,1.7.2h1.7a13.3,13.3,0,0,0,5.3-2.7,12.4,12.4,0,0,0,2.2-1.8l.8-.8.6-.4h.8l1,.5a23.2,23.2,0,0,0,2.3,1.4,3.7,3.7,0,0,0,1.5.4,2.5,2.5,0,0,0,1.5-.5,4.7,4.7,0,0,0,1-1l.6-1.2a5.1,5.1,0,0,1-2,1.6,1.7,1.7,0,0,1-1,.1l-1-.5-1.8-1.7a3.8,3.8,0,0,0-1.3-.9,3.5,3.5,0,0,0-1.8-.5,3.5,3.5,0,0,0-1.8.6l-.4.2-.3.3-.5.3-2.1,1.4a10,10,0,0,1-2.1,1,8.3,8.3,0,0,1-2.1.6,3.7,3.7,0,0,1-3.1-1.1,8.4,8.4,0,0,1-1.7-3.7,13,13,0,0,1-.2-4.4,3.6,3.6,0,0,1,.2-1v-.3a.6.6,0,0,1,.1-.4c0-.3.1-.6.1-.9a5.5,5.5,0,0,0-.1-2.2,7,7,0,0,0-1.1-2.1l-1.4-1.2-1.3-.9-2.2-1.3-2.1-1.4a11.9,11.9,0,0,1-1.8-1.5,12.9,12.9,0,0,1-1.7-1.6,7,7,0,0,1-1.4-1.7,5.7,5.7,0,0,1-.9-3.6,9,9,0,0,1,1.7-3.9,13.2,13.2,0,0,1,3.5-3.1,14.9,14.9,0,0,1,4.5-1.9A15.1,15.1,0,0,1,169.4,578.5Z" style="fill:#2e2e49"/><path d="M254.2,620.8c-4.4-7.4,2.8-13.5-2.6-12.3s-8.7,4.4-17.5.6-22.1-10.5-18.9-3-5.3,10.2.2,14.7,28.6,9.4,33.6,7.9S254.2,620.8,254.2,620.8Z" style="fill:#ff5a5a"/><circle cx="254" cy="648" r="2.3" style="fill:#fc9a2d"/><circle cx="254.5" cy="647.9" r="2.3" style="fill:#fccc2d"/><circle cx="250.3" cy="638.5" r="2.3" style="fill:#fc9a2d"/><circle cx="250.8" cy="638.4" r="2.3" style="fill:#fccc2d"/><circle cx="256.3" cy="657.7" r="2.3" style="fill:#fc9a2d"/><circle cx="256.7" cy="657.6" r="2.3" style="fill:#fccc2d"/><path d="M273.8,741.6c4.7,15.7,8.4,29.3,16,62.3l3,13.3c-1.6-24.1-6.3-50.2-16.9-80.8-2.7-7.6,18.5-45.5,18.4-69.7-.1-5.4-5.3-13.9-11.3-21.9,6,11.4,10.3,22.9,6.5,33.1C282.5,696.5,269.2,725.9,273.8,741.6Z" style="fill:#f77979"/><path d="M184.7,924.9c.3,3.4.5,6.8.8,10.1s.7,9.2,1,13.3.6,7.2.8,10.2l1.3,16.1s4.8.8,12,1.7c-1.4-29.8-5-106.4-5.1-139-.1-41,32-77.6,34-105.5,1.9-24.8-24.2-49.5-43.5-83.6q-.5,3.3-.6,6.3a23.5,23.5,0,0,0,2.2,11.4l25.1,52.8a31.8,31.8,0,0,1-3.5,29.6c-10.3,14.8-30.1,52.8-30.2,69.8C178.8,839,182,887.4,184.7,924.9Z" style="fill:#e13"/><path d="M135.4,829.5l7.9-9.9c3.6-4.5,8.3-7.6,11.9-3.7,5.7,5.3,7.3,21,5.8,26.5-.5,1.6-2.1-1.6-3.3-7.7s-1.8,15.4-6,15.1c-1.8.3-.8-7.4-.1-11.4.2-1.4-2.4-.9-2.5.1-.6,3.6-4.1,13.4-6.3,12.5s-2-2.7-.5-7.6c.3-1.2,1.2-4.4,1.5-5.4s-.6-2.6-1-1c-1,4-4.5,10.8-6,9.9s1-12.8,3-15.6c.2-1.7-2,.9-2.2,1.1C130.9,840.8,128.7,837.6,135.4,829.5Z" style="fill:#ffe1d9"/><polygon points="149.5 805.7 147.4 817 154.7 817.3 158.5 807 149.5 805.7" style="fill:#ffe1d9"/><path d="M144.2,813.7l18.9,3.9s1.3-7.6,3.2-18.4c3.4-20,9-50.6,12.2-62.7,5-18.6,38-60.3,36.9-90.2-.3-7.5-15-27.9-24.9-17.1s-36.2,98.3-36.2,98.3l-8,68Z" style="fill:#ff5a5a"/><path d="M144.2,813.7l18.9,3.9s1.3-7.6,3.2-18.4c-7,.3-15.2-2-20-3.7Z" style="fill:#e13"/><path d="M141,798.6c-3.2.7-1.3,5.1-1.5,8.3s-2.6,5.4-1.6,8.1c1.9,5.2,23.6,9.4,27.9,6.6s.6-4.7,3.3-9.8c3.9-7.3,1-8.3-9.1-8.3S145.9,797.6,141,798.6Z" style="fill:#ff5a5a"/><path d="M121.2,434.7c-38.3,0-74.6,28.1-74.6,74.8a104.6,104.6,0,0,0,9.9,43.2c7.8,19.7,20.6,41.7,20.6,41.7l-.5-12.1a71.9,71.9,0,0,0,7.1,6.5l6.9,15.1.7-9.5c9.4,6,19.6,9.5,29.9,9.5,38.2,0,83.8-49.1,91.8-94.9C221.4,460.4,159.4,434.7,121.2,434.7Z" style="fill:#443a36"/><path d="M188.5,757.2,205,855.9a10.3,10.3,0,0,1-8.5,11.8,10.1,10.1,0,0,1-11.5-7.4l-26.6-96.5a15.4,15.4,0,1,1,29.7-8.1A8.3,8.3,0,0,1,188.5,757.2Z" style="fill:#ffe1d9"/><path d="M190.9,657.4c-3.7,34.9-1,87.7,0,92.8s-32.7,19-38.8,4.1-5.8-84.2,0-101.5S193.5,633,190.9,657.4Z" style="fill:#ccc"/><path d="M199.2,767.6c-6.9,2.8-37.6,15.4-45.2,11.9-2.7-1.2-1-5-1.4-9.1a9.2,9.2,0,0,0-.5-2.8,11.8,11.8,0,0,0-2.2-3.6c-2.4-2.5-5-2.7-4.6-7.6.6-7.9,46.8-14.7,50.9-9,1,1.4,4.3,4.5,1.8,11.3a1.4,1.4,0,0,1-.2.6c-.3.7.3,1.5,1,2.2s2,1.8,2.1,2.6S199.9,767.3,199.2,767.6Z" style="fill:#e6e6e6"/><path d="M172.2,762.9c-2.1,1-15.8,5.7-19.6,7.5a9.2,9.2,0,0,0-.5-2.8,11.8,11.8,0,0,0-2.2-3.6C159.3,762.4,175.3,761.6,172.2,762.9Z" style="fill:#ccc"/><path d="M198.8,761.5c-4.1,1-11.7,2.8-16,3.3s8.2-4.5,15.2-6.1a1.4,1.4,0,0,1-.2.6C197.5,760,198.1,760.8,198.8,761.5Z" style="fill:#ccc"/><path d="M190.5,862.4c-2.3,10.9-4.6,32-1.7,33.9,4.9,3,3.9-7.4,8.4-14.5,6.6-10.4,2-16-2.3-18.8S190.5,862.4,190.5,862.4Z" style="fill:#ffe1d9"/><path d="M202.3,853.6s14.1,19.8,13.5,24.1-7.6,33.1-9.2,32.9-4.6-8.6-3.3-15.1c1.8-8.9-6.3-10.2-12.4-19-7.4-10.7-3.1-28.3-3.1-28.3Z" style="fill:#ffe1d9"/><path d="M211.4,1154.3c0,2-81.7.1-81.7.1s-.4-1.7-.9-4.3c-.1-.9-.3-1.9-.4-3-1-6.6-1.5-15.5,1.8-18.4a18.3,18.3,0,0,0,3.9-4.4,9.3,9.3,0,0,0,1.5-4.3s-.3-1.5,6.8.5c3.3,1,6,.1,10.1-1.5s10.9,2.4,10.9,2.4c27.3,9.9,41.7,13.8,46.3,24.6a20.6,20.6,0,0,1,1.3,4.6C211.2,1151.7,211.3,1153,211.4,1154.3Z" style="fill:#1a1a1a"/><path d="M211.4,1154.3c0,2-81.7.1-81.7.1s-.9-4.7-1.3-7.3l82.6,3.5C211.2,1151.7,211.3,1153,211.4,1154.3Z" style="fill:#333"/><path d="M209.7,1146a133.8,133.8,0,0,1-15.3-2.2c-16.8-3.4-37.7-8.7-39.2-18.5a58.4,58.4,0,0,0,8.2-3.9C190.7,1131.3,205.1,1135.2,209.7,1146Z" style="fill:#333"/><circle cx="174" cy="1138.4" r="3.6" style="fill:gray"/><circle cx="188" cy="1142.7" r="3.6" style="fill:gray"/><circle cx="160.5" cy="1133.5" r="3.6" style="fill:gray"/><path d="M128.4,1147.1c-1-6.6-1.5-15.5,1.8-18.4a18.3,18.3,0,0,0,3.9-4.4C138.8,1133.8,132.6,1142.6,128.4,1147.1Z" style="fill:#333"/><path d="M144.8,1155.3c0,2-81.7.2-81.7.2s-.4-1.8-.9-4.4c-.1-.9-.3-1.9-.5-3-.9-6.5-1.4-15.5,1.9-18.3a21,21,0,0,0,3.9-4.5A9.3,9.3,0,0,0,69,1121s-.3-1.5,6.8.6c3.3.9,6,0,10.1-1.6s10.9,2.4,10.9,2.4c27.3,10,41.7,13.9,46.3,24.6a20.6,20.6,0,0,1,1.3,4.6C144.6,1152.7,144.7,1154,144.8,1155.3Z" style="fill:#1a1a1a"/><path d="M144.8,1155.3c0,2-81.7.2-81.7.2l-1.4-7.4,82.7,3.5C144.6,1152.7,144.7,1154,144.8,1155.3Z" style="fill:#333"/><path d="M143.1,1147a127.9,127.9,0,0,1-15.3-2.2c-16.8-3.3-37.7-8.7-39.2-18.5a58.4,58.4,0,0,0,8.2-3.9C124.1,1132.4,138.5,1136.3,143.1,1147Z" style="fill:#333"/><circle cx="107.4" cy="1139.4" r="3.6" style="fill:gray"/><circle cx="121.4" cy="1143.7" r="3.6" style="fill:gray"/><circle cx="93.9" cy="1134.5" r="3.6" style="fill:gray"/><path d="M61.7,1148.1c-.9-6.5-1.4-15.5,1.9-18.3a21,21,0,0,0,3.9-4.5C72.2,1134.8,66,1143.6,61.7,1148.1Z" style="fill:#333"/><path d="M128,1128.5l16.8-2.7,23.7-3.8c-6.7-41.4-8.7-170.9-4.9-250.8l-17.8-.8-23.1-1.1C119.4,937.7,119.7,1076.5,128,1128.5Z" style="fill:#004472"/><path d="M128,1128.5l16.8-2.7c-4.9-43.8-22.1-256.5-22.1-256.5C119.4,937.7,119.7,1076.5,128,1128.5Z" style="fill:#003356"/><path d="M63.2,1128.9l17.1-1.4,23.8-1.9c-3.3-41.8,1.5-172,11.6-251.4L98,872l-23-2.9C66.4,937,59,1076.4,63.2,1128.9Z" style="fill:#004472"/><path d="M63.2,1128.9l17.1-1.4c-1.5-44-5.3-258.4-5.3-258.4C66.4,937,59,1076.4,63.2,1128.9Z" style="fill:#003356"/><path d="M67.5,872.9a15,15,0,0,0,10.9,7.3,346.5,346.5,0,0,0,37.7,4c4.6.2,9.2.3,13.7.1,13.6-.3,25.7-2.4,31.1-8s2.4-35.8,2.4-35.8-11-2.5-25.6-4.7l-2.6-.3c-3.1-.5-6.4-.9-9.7-1.2-21.3-2.4-45.3-10.5-53.1-1.7C60.3,846.3,63.5,866,67.5,872.9Z" style="fill:#004472"/><path d="M127.3,880.1c.7,0,.8-.7,1.2-1.9l-1.9-.5c-.1.6-.2.9-.2,1l.7.4h-.8l.7,1.1Z" style="fill:#003356"/><path d="M117.4,876.7l.6-2.7,1.9.4c-.3,1-.5,1.9-.7,2.7Zm9.9-1.6.6-2.7,1.8.3c-.2,1-.4,2-.6,2.8Zm-8.6-3.8.6-2.7,1.8.4-.6,2.7Zm9.7-1.6a23.3,23.3,0,0,0,.5-2.8l1.9.4a25.6,25.6,0,0,0-.5,2.7Zm-8.5-3.8.6-2.7,1.8.4-.6,2.7Zm9.5-1.7a25.1,25.1,0,0,0,.4-2.7l1.9.3c-.1.9-.3,1.8-.4,2.7Zm-8.4-3.7.6-2.8,1.8.4a25.6,25.6,0,0,0-.5,2.7Zm9.2-1.7.3-2.8,1.8.2c0,.9-.1,1.8-.2,2.8Zm-8.1-3.8a25.6,25.6,0,0,0,.5-2.7l1.9.3-.6,2.8Zm8.5-1.7V853a15.5,15.5,0,0,0-.1-2.3l1.8-.3a18.4,18.4,0,0,1,.2,2.6v.3h-1.9Zm-6.6-3.6-.9-.2a5.6,5.6,0,0,1,1.6-2.9l1.2,1.4a3.1,3.1,0,0,0-.9,1.9Zm3.7-2.1.4-1.9a5.8,5.8,0,0,1,2.8,1.8l-1.4,1.2A3.5,3.5,0,0,0,127.7,847.6Z" style="fill:#003356"/><polygon points="118.2 881.2 118.6 879.8 116.8 879.4 116.4 880.7 118.2 881.2" style="fill:#003356"/><rect x="62.7" y="821.1" width="104.5" height="29.1" rx="7.7" transform="translate(229.9 1671.3) rotate(-180)" style="fill:#1a1a1a"/><rect x="90.4" y="819.7" width="9.1" height="33.85" rx="3.3" transform="translate(189.9 1673.2) rotate(180)" style="fill:#004472"/><rect x="154.2" y="819.7" width="9.1" height="33.85" rx="3.3" transform="translate(317.5 1673.2) rotate(-180)" style="fill:#004472"/><path d="M134.8,851.2a15.9,15.9,0,0,1-15.9-15.9v-1.7a16,16,0,0,1,31.9,0v1.7A16,16,0,0,1,134.8,851.2Zm0-29.5a11.9,11.9,0,0,0-11.9,11.9v1.7a12,12,0,0,0,23.9,0v-1.7A11.9,11.9,0,0,0,134.8,821.7Z" style="fill:#666"/><path d="M143.5,836.5H128a2,2,0,0,1-2-2,1.9,1.9,0,0,1,2-1.9h15.5a1.9,1.9,0,0,1,2,1.9A2,2,0,0,1,143.5,836.5Z" style="fill:#666"/><circle cx="131.7" cy="762.5" r="2.8"/><path d="M75.3,782.7C73.7,754.2,52.1,678,44,650.4a15.5,15.5,0,0,1,9.5-19c2.4-.9,40.9-6.9,40.9-6.9s22,8.3,43.8,11.1c9.1,1.1,19.7,2.4,25.2,3.9s12.2,9.2,12.2,9.2-7.3,52.5-10.6,86.1c-4.8,49.4-5.2,95.9-5.2,95.9S76.2,800.6,75.3,782.7Z" style="fill:#ccc"/><path d="M142.3,582c-1.5,7.6-1,24.2-.4,36.3.1,3.2.3,6.1.5,8.4s-.9,9.1-3.6,9.7c-4.2.8-11.7-1.4-19.4-1.4a100,100,0,0,1-18.6-1.8c-2.7-.5-4.6-3.4-4.4-6.6.6-8.6,5-16.4,3-31.6A90.3,90.3,0,0,0,96,580.1c-2.7-8.3,25.4-10.5,39.3-6.7,5.2,1.4,8.5,3.7,7.5,6.7A10.5,10.5,0,0,0,142.3,582Z" style="fill:#ffe1d9"/><polygon points="129.8 759.8 141.4 776.3 141.5 776 153.4 731 138 640.6 134.1 642.4 131.7 643.4 129.8 759.8" style="fill:#9e005d"/><path d="M124.1,757.8l17.3,18.5V776c-3.2-5.2-7.7-13.2-8.6-16.9-1.2-5.7-2.3-94,1.2-116.7l-2.4,1Z" style="fill:#7a004e"/><path d="M123.4,643.5c0,1.9,5.8,11.2,10.4,14.8,1.3,1,2.5,1.6,3.4,1.4,4.4-1,11.7-15.9,9.3-17.9s-11.7-2.5-17.2-1.2C125.9,641.4,123.5,642.6,123.4,643.5Z" style="fill:#9e005d"/><path d="M123.4,643.5c0,1.9,5.8,11.2,10.4,14.8-2.1-4.6-4.7-11.6-4.5-17.7C125.9,641.4,123.5,642.6,123.4,643.5Z" style="fill:#7a004e"/><path d="M141.9,618.3c-9.8-1.5-29.4-10.3-42.5-23.3A90.3,90.3,0,0,0,96,580.1c-2.7-8.3,25.4-10.5,39.3-6.7l7,8.6C140.8,589.6,141.3,606.2,141.9,618.3Z" style="fill:#edbbab"/><path d="M141.9,818.5l-18.8,31L80.2,831.3l-17.9-7.6S70.2,802.5,68,790c-1.9-10.9-18.4-87.1-26-126.2-2.6-13.4-4.1-22.4-3.6-23,1.8-2.2,6.4-10.8,28.8-14.1,4.9-.7,29.4-2.7,29.4-2.7-2,4.4,30.1,38,43.2,82.5,4,13.9.2,20.1,0,38.3C139.5,767.3,141.9,818.5,141.9,818.5Z" style="fill:#004472"/><path d="M80.2,831.3l-17.9-7.6S70.2,802.5,68,790c-1.9-10.9-18.4-87.1-26-126.2,16.1-20.2,31.3-1.3,33.3,27.9s9.5,91.2,10.1,108C85.8,809.6,82.7,822.3,80.2,831.3Z" style="fill:#003356"/><path d="M139.8,744.8c-2.6,36-1.4,71.3-1.4,75,1-1.2,11.8,26.6,11.8,26.6l21.4-26.6a162.4,162.4,0,0,1-4.4-31.2C165.9,738.3,184.3,642.2,180,640s-3.5-2.2-12.6-5.7c-22.4-8.5-24.8-6.5-24.8-6.5,5.3,16.5,1.6,47-1.1,76.9C140.3,718.7,140.6,732.5,139.8,744.8Z" style="fill:#004472"/><circle cx="141" cy="712.5" r="4.1" style="fill:#0071bc"/><circle cx="141.9" cy="736.9" r="4.1" style="fill:#0071bc"/><circle cx="142.3" cy="765.7" r="4.1" style="fill:#0071bc"/><circle cx="142.3" cy="794" r="4.1" style="fill:#0071bc"/><circle cx="140.6" cy="821.9" r="4.1" style="fill:#0071bc"/><polygon points="96.8 616.2 85.3 626.3 127 660.9 133.6 636.2 96.8 616.2" style="fill:#e6e6e6"/><polygon points="96.8 613.7 83.6 625.7 124.8 653.2 135.1 635.2 96.8 613.7" style="fill:#ccc"/><polygon points="136.7 635.4 148.5 660.3 154 630.6 144 629.6 136.7 635.4" style="fill:#e6e6e6"/><polygon points="137 635.2 147.9 655.3 153.7 629 143.8 626.3 137 635.2" style="fill:#ccc"/><path d="M72.9,666.5c-10.7,33.3-20.7,83.9-20.2,89.2s-34.6,15.4-39.1-.1,12.3-97.5,19.1-114.4C41.2,619.8,80.4,643.2,72.9,666.5Z" style="fill:#ccc"/><path d="M51.7,784.5,63,872a10.2,10.2,0,0,1-20.1,3.8L21.4,790.2a15.4,15.4,0,1,1,29.9-7.4A10.5,10.5,0,0,1,51.7,784.5Z" style="fill:#ffe1d9"/><path d="M37.2,894.7c1.4-3.1,3.8-12.3,5-14.6,5-9.3,13.8-10.9,18.3-7.9s8.3,7.9,10.8,11.5c4.5,6.4,7.1,17.3,5.1,18.7s-3.6-4.6-8.8-9a3,3,0,0,0-1.3-.9c-.5,0-.6.8-.8,1.7s-.2,3.9.5,9.6,0,12.3-1.9,12.6-4.1-5-4.9-11.7l-.3-2.6c-.1-1.8-1.5-1-1.3.3s-.2,3.8-.3,6c-.4,6.8-2.4,12.1-4.3,12s-3.2-5.7-2.8-12.4c.1-1.7.2-3.3.4-4.7s-1.6-3.1-1.7-1l-.3,2.7c-.6,6.7-2.7,12-4.6,11.8s-2.9-5.8-2.2-12.5a47.9,47.9,0,0,1,1.6-8.5c.2-.9-.7-.8-1-.3s-1.1,1.7-1.5,2.4c-2.2,4.4-5.1,8.8-6.5,8.1S34.7,900,37.2,894.7Z" style="fill:#ffe1d9"/><path d="M55.3,875.3,54.1,865l5.7-.7L61,874.6Z" style="fill:#333"/><path d="M44.5,876.6l-1.3-10.3,5.1-.6,1.3,10.2Z" style="fill:#333"/><path d="M61.2,874.5l-1-10.3a48.8,48.8,0,0,1,5.6-.4l.2,10.3Z" style="fill:#333"/><path d="M38.9,877.3,37.7,867l5.1-.6L44,876.6Z" style="fill:#333"/><circle cx="52.4" cy="870.1" r="9.4" style="fill:#999"/><circle cx="52.4" cy="870.1" r="8.4" style="fill:#ccc"/><circle cx="52.4" cy="870.1" r="3.7" style="fill:#4d4d4d"/><circle cx="52.4" cy="870.1" r="0.7" style="fill:#999"/><rect x="52.7" y="869.8" width="4.4" height="0.34" transform="translate(-46 4.1) rotate(-3)" style="fill:#999"/><circle cx="52" cy="862.5" r="0.5" style="fill:#4d4d4d"/><circle cx="52.8" cy="877.7" r="0.5" style="fill:#4d4d4d"/><circle cx="59.9" cy="869.7" r="0.5" style="fill:#4d4d4d"/><circle cx="44.8" cy="870.5" r="0.5" style="fill:#4d4d4d"/><circle cx="55.9" cy="863.4" r="0.5" style="fill:#4d4d4d"/><circle cx="48.9" cy="876.8" r="0.5" style="fill:#4d4d4d"/><circle cx="48.2" cy="863.8" r="0.5" style="fill:#4d4d4d"/><circle cx="56.6" cy="876.4" r="0.5" style="fill:#4d4d4d"/><circle cx="45.6" cy="866.8" r="0.5" style="fill:#4d4d4d"/><circle cx="59.2" cy="873.4" r="0.5" style="fill:#4d4d4d"/><circle cx="58.8" cy="866.1" r="0.5" style="fill:#4d4d4d"/><circle cx="46" cy="874.1" r="0.5" style="fill:#4d4d4d"/><rect x="48.5" y="873.8" width="8.2" height="0.18" transform="translate(922.4 775.1) rotate(87)" style="fill:#999"/><g style="opacity:0.5"><circle cx="52.4" cy="870.1" r="8.4" style="fill:#ccefff"/></g><path d="M192.4,590.6c-2.8,10-4.8,21.1-8,23.2s-17.9,5.7-24.3,4.9c-33.3-4-58.3-28.1-62-34.1l-2.2-3.5-3.6-6.5C82,555.9,63,515.6,76.7,494.8c25.7-39.1,98.1-61.3,120-26.8,3.1,4.9,7.6,11.7,3.1,42-1.5,10.6-3.7,9.9-4.9,17.1-.5,3.3,2.7,4.7,4.9,6.7C206.9,539.9,201.1,559,192.4,590.6Z" style="fill:#ffe1d9"/><path d="M195.1,577.1a16.2,16.2,0,0,1-4.6,2.9,30.5,30.5,0,0,1-5.1,1.7,38.4,38.4,0,0,1-10.7.8,34.7,34.7,0,0,1-10.5-1.9,22.3,22.3,0,0,1-4.9-2.4,12.9,12.9,0,0,1-2.1-1.9,5.7,5.7,0,0,1-.8-1.3,2,2,0,0,1-.1-1.3,2.3,2.3,0,0,0,.7,1l1,.6a8.5,8.5,0,0,0,2.2.9,38.6,38.6,0,0,0,4.9.9,79.2,79.2,0,0,0,9.9.9c3.3.2,6.6.3,9.9.2l5-.3A50.6,50.6,0,0,0,195.1,577.1Z" style="fill:#edbbab"/><path d="M135.3,523.8c.3,5,7.4,6.7,13.1,7.1s14.1-1.6,14.1-5c0-5-8.1-10-15-9.6S134.9,518.8,135.3,523.8Z" style="fill:#fff"/><circle cx="151" cy="523.8" r="6.4" style="fill:#603813"/><circle cx="152.5" cy="524.5" r="4.6" style="fill:#2d1508"/><g style="opacity:0.5"><circle cx="147.6" cy="521.5" r="2.6" style="fill:#fff"/></g><path d="M135.3,523.2a5.9,5.9,0,0,1,.6-3.2,7.5,7.5,0,0,1,2.4-2.6,13.4,13.4,0,0,1,6.4-2,24.6,24.6,0,0,1,6.6.6l3.1,1a13.1,13.1,0,0,1,2.8,1.7l-3.1-.8-3.1-.5a43.3,43.3,0,0,0-6.2-.2,15.9,15.9,0,0,0-5.8,1.4,8.4,8.4,0,0,0-2.3,1.8A7.4,7.4,0,0,0,135.3,523.2Z" style="fill:#3f3632"/><path d="M195,528.8c-.7,2.9-4.3,4.1-8.9,3.2s-6.4-2.3-5.8-4.7,6.1-7.5,10-6.4S196,525,195,528.8Z" style="fill:#fff"/><path d="M194.9,529.5a6.4,6.4,0,0,0-.5-4.1,5.9,5.9,0,0,0-1-1.7,9.3,9.3,0,0,0-1.4-1.4,3.6,3.6,0,0,0-1.8-.7l-2-.2a15.2,15.2,0,0,0-2.1.3l-2.1.5,2-1.1,2.1-.5a5.9,5.9,0,0,1,2.3,0,4.9,4.9,0,0,1,2.3.8,8.1,8.1,0,0,1,2.6,3.7A5.6,5.6,0,0,1,194.9,529.5Z" style="fill:#3f3632"/><ellipse cx="189.1" cy="526.9" rx="5" ry="5.1" transform="translate(-196.6 121.2) rotate(-23.8)" style="fill:#603813"/><ellipse cx="190.3" cy="527.1" rx="3.6" ry="3.7" transform="translate(-196.6 121.7) rotate(-23.8)" style="fill:#2d1508"/><g style="opacity:0.5"><ellipse cx="186" cy="525.8" rx="2.1" ry="2.1" transform="translate(-196.5 119.8) rotate(-23.8)" style="fill:#fff"/></g><path d="M170.8,510.9a63.7,63.7,0,0,1-16.2-3.6c-6.1-2-9.8-3.2-21,.8l-2.2-6.2c13.3-4.8,18.6-3,25.3-.8a51.6,51.6,0,0,0,14.6,3.2Z" style="fill:#3f3632"/><path d="M199.7,513c-3.1-2.6-4.6-2.1-7.8-1.3a21.8,21.8,0,0,1-8.9.8l.9-6.1a15.4,15.4,0,0,0,6.5-.6c3.6-1,7.7-2.1,13.2,2.6Z" style="fill:#3f3632"/><path d="M181.9,533.8l5.8,4.6a53.9,53.9,0,0,1,5.6,5.2,16.1,16.1,0,0,1,2.3,3.3l.5.9c.1.4.3.7.4,1.1a4.5,4.5,0,0,1,0,2.8,7.2,7.2,0,0,1-1.2,2.1,10.6,10.6,0,0,1-1.5,1.5,21,21,0,0,1-3.3,2.2,38.8,38.8,0,0,1-7,3,31.6,31.6,0,0,1-7.4,1.6c2.3-1,4.5-2.1,6.7-3.3a48.3,48.3,0,0,0,6.2-3.7,13.9,13.9,0,0,0,2.7-2.1,6.4,6.4,0,0,0,1.7-2.3v-.8l-.3-.7a1.6,1.6,0,0,0-.4-.7,17.3,17.3,0,0,0-1.9-2.8c-.7-.9-1.6-1.7-2.4-2.6l-2.7-2.5-5.5-5a66.6,66.6,0,0,1-5-5.6" style="fill:#edbbab"/><path d="M71.3,489c-17.5,10.2-.5,58.3-.5,58.3l17,32L93.6,509l-3.5-37.8Z" style="fill:#443a36"/><path d="M94.8,553.9C128.9,532.1,71,497.1,66,517.4S84.8,560.3,94.8,553.9Z" style="fill:#ffe1d9"/><path d="M94.8,538.4a9.7,9.7,0,0,0-.7-5.3,25.9,25.9,0,0,0-2.6-4.6,30.1,30.1,0,0,0-7.6-7.5,14.7,14.7,0,0,0-5-2.5l-1.7-.2a3.4,3.4,0,0,0-1.9.5,3.4,3.4,0,0,0-.9.8l-.4.7a4.9,4.9,0,0,0-.5,1.6,8.2,8.2,0,0,0,1.2,5.6,14.5,14.5,0,0,0,3.4,4,22.9,22.9,0,0,1-2-4.6,7.5,7.5,0,0,1-.2-4.4,2,2,0,0,1,.4-.8l.3-.4h.1a5.3,5.3,0,0,1,1.4.2,15.9,15.9,0,0,1,4,2.2,45.4,45.4,0,0,1,7.5,6.4,36.8,36.8,0,0,1,3.1,3.8A12.1,12.1,0,0,1,94.8,538.4Z" style="fill:#edbbab"/><path d="M116.4,451.9c-18.8,34.6-10.9,99.4-10.9,99.4S70,511.6,71.3,489,116.4,451.9,116.4,451.9Z" style="fill:#443a36"/><path d="M99.5,416.8c37.2-22.7,80.9-10.3,101.4,12.2,22,24.2,10.6,57-7.5,64.4s-45.5,3.4-55.1,9.2S121.2,518,121.2,518l3.9-19.3s-5.4,6.3-10.7,22c-2.2,6.5-7.5,23.1-7.5,23.1s-3.5-10.1-3.9-19.3a43.5,43.5,0,0,1,2.7-16L93.1,547.4S86.3,526,86.2,518c-.3-15.4,2.6-20,2.6-20s-3.9,3-7.9,12.1c-2.9,6.5-5,11.7-5,11.7s-9.7-23.9,1.3-37.6c3.8-4.8,9.9-11.2,9.9-11.2a17.4,17.4,0,0,0-6.1,2.3c-12.7,7.8-17.1,17.1-17.1,17.1S60.4,440.8,99.5,416.8Z" style="fill:#60524c"/><path d="M196.4,471.2a8.5,8.5,0,0,1-1.1,3.4,12.3,12.3,0,0,1-2.2,2.9l-1.3,1.3-1.5,1.2a32.8,32.8,0,0,1-3.1,2,48.6,48.6,0,0,1-13.8,5,58.5,58.5,0,0,1-7.3,1.2,21.9,21.9,0,0,1-3.6.3l-3.7.2a71.1,71.1,0,0,1-14.5-1.3l14.2-2.4,6.9-1.2,6.8-1.3a91.6,91.6,0,0,0,13.2-3.8l3.1-1.3a21.1,21.1,0,0,0,3-1.6A14.4,14.4,0,0,0,196.4,471.2Z" style="fill:#998675"/><path d="M162.1,422.1a88.5,88.5,0,0,0-25.3,2.4,94.9,94.9,0,0,0-23.3,8.8,98.1,98.1,0,0,0-20.1,14.1,86.7,86.7,0,0,0-15.8,18.8,50.1,50.1,0,0,1,5.2-11.3,62.7,62.7,0,0,1,7.7-10.1A80.1,80.1,0,0,1,136,420.9a65.1,65.1,0,0,1,13.2-.8A55.9,55.9,0,0,1,162.1,422.1Z" style="fill:#998675"/><path d="M141,456.5a144.8,144.8,0,0,0-17.9,9.5,61.8,61.8,0,0,0-14.8,12.5,51.3,51.3,0,0,0-9.5,16.3c-2.3,6-3.5,12.3-4.6,18.8a53.8,53.8,0,0,1-.6-9.9,48.2,48.2,0,0,1,1.4-9.9,41.2,41.2,0,0,1,3.6-9.6l1.2-2.3,1.4-2.2,1.5-2.2.8-1,.9-1A52.9,52.9,0,0,1,121,462.8a71.3,71.3,0,0,1,20-6.3Z" style="fill:#998675"/><path d="M60,778.7c-7.2,2.2-38.9,11.8-46.1,7.6-2.6-1.5-.6-5.2-.5-9.3a14.1,14.1,0,0,0-.3-2.8,9.6,9.6,0,0,0-1.9-3.8c-2.1-2.7-4.7-3.1-3.8-8,1.4-7.8,48-10.2,51.6-4.1.8,1.4,3.8,4.8.7,11.4l-.3.6c-.3.7.2,1.5.8,2.3s1.8,1.9,1.8,2.7C61.9,777.7,60.7,778.4,60,778.7Z" style="fill:#e6e6e6"/><path d="M33.6,771.5c-2.2.7-16.3,4.2-20.2,5.5a14.1,14.1,0,0,0-.3-2.8,9.6,9.6,0,0,0-1.9-3.8C20.8,769.7,36.8,770.4,33.6,771.5Z" style="fill:#ccc"/><path d="M60.2,772.6c-4.1.6-11.9,1.7-16.2,1.7s8.5-3.6,15.7-4.6l-.3.6C59.1,771,59.6,771.8,60.2,772.6Z" style="fill:#ccc"/><path d="M663.4,801.6c21.7,21,115.9,23.2,124.2-6.7,12.4-44.4-17.8-74.2-13.4-103s23.3-128.3-21-161c-25.2-18.6-75.3-22.6-87.6,5.2-2.3,5.4-7.9,11-7.9,11s-9,0-14.2,13.9c-18.1,48.4-8.5,213.1,19.9,240.6Z" style="fill:#aa3d1b"/><path d="M665.5,776.6c21.6,21,89.2,32.3,97.5,2.5,12.4-44.4-20.1-62.5-15.8-91.3s40.5-109.4-3.8-142.2c-25.1-18.6-53.9-32.2-66.1-4.4-2.4,5.3-7.9,10.9-7.9,10.9s-9,0-14.2,14c-18.2,48.4-18.1,183,10.3,210.5Z" style="fill:#893018"/><path d="M676.3,709.5c5.9-1.3-4.7,71.5-1.6,75.2,5.5,6.8,1.3,60.5-7,95.1l-10.1-6.6-.8-.6s-.8-69.3-.8-79.7c.1-3.9,6.5-57.4,9-75.9a9,9,0,0,1,7.3-7.6Z" style="fill:#e2e2e2"/><path d="M675.4,869.4l-4.8,13.5s-21.3-2.7-21.1-5.5l.9-13.7Z" style="fill:#fff"/><path d="M639.5,1127.4l15.3,1.6s22.7-65.6,26.1-90.4c.7-5.3,2.9-32.5,2.9-32.5l28.9-114.8-49.6-6.7-8.2,116.5V1017l-15.5,110.4Z" style="fill:#ffe1d9"/><path d="M664,1138.4c-.5,10.4-4.2,15.3-4.2,15.3H639s-16.9-4.2-19.9-2.1-15.4,1.6-22.3,1.5h-4.1c-.4-.5-5.6-6.7-3.3-18.1a4.8,4.8,0,0,1,1.4-2.5c5.4-5.2,23.4-1.1,23.4-1.1h0c1.1,0,15.9,1,24-6.6a22,22,0,0,0,2-2.3s6.4,5.3,9,5.3,7.2-4.2,7.2-4.2a16.7,16.7,0,0,1,7.5,15Z" style="fill:#f1f2f2"/><path d="M637,1124.3c-1,5.1-9.4,5.5-6.6,6s8.5,2.5,11.6-1.6,1.8-11.4-1-11.9-3.1,2.3-4,7.5Z" style="fill:#fff"/><path d="M603.3,1151.7c-.4.9-3.2,1.3-6.5,1.3h-4.1c-.4-.5-5.6-6.7-3.2-18.1a5.5,5.5,0,0,1,1.3-2.5c8.7,2,13.6,16.9,12.5,19.4Z" style="fill:#fff"/><path d="M638.2,1124.6c3.3,12-17.4,10.8-19.5,10.1s-3-2.5-4.4-3.5C615.3,1131.2,630.2,1132.2,638.2,1124.6Z" style="fill:#fff"/><path d="M630,1125.3c-2.8-.5-4.3-1-4.5-1.7a.9.9,0,0,1,.3-.9,9.5,9.5,0,0,1,7.5-1.5,6.7,6.7,0,0,1,4.8,4.3l.4.9h-1l-7.5-.9Zm-3-2c1.4.6,5.5,1.2,9.5,1.7a4.9,4.9,0,0,0-3.5-2.6A8.6,8.6,0,0,0,627,1123.3Z" style="fill:#0c6ed6"/><path d="M629,1131.8h-.3a.9.9,0,0,1-.5-.8,5.8,5.8,0,0,1,2.5-4.5c1.3-1,3.6-1.8,7.1-.6l1.1.5-.9.6c-3.3,2.4-7.5,5.2-9,4.9Zm6.8-5.2a5.5,5.5,0,0,0-4.4.8,5,5,0,0,0-1.9,3.2c1-.2,4-2,6.7-3.9Z" style="fill:#0c6ed6"/><path d="M641.4,1134.7a.1.1,0,0,1-.1-.1c-.4-.1-.5-.4-.4-.8,1.6-4.2-3.4-7.7-3.5-7.8a.5.5,0,0,1-.1-.8.5.5,0,0,1,.8-.2c.3.2,5.9,4.1,4,9.3a.8.8,0,0,1-.7.4Z" style="fill:#0c6ed6"/><path d="M627,1140.7v-1.3h3.7v1.3Zm-3.8,0h-3.8v-1.3h3.7v1.3Zm-7.6-.3-3.7-.2V1139l3.7.2Zm19-.1-.3-1.2,3.6-.9.4,1.2-3.7.9Zm-26.5-.4-3.7-.4.2-1.3,3.7.5-.2,1.2Zm-7.4-1-3.8-.8.3-1.2,3.7.7-.2,1.3Zm41.2-.6-.4-1.2,3.5-1.2.5,1.1-3.6,1.3Zm-48.6-1.3a16.3,16.3,0,0,1-3.5-1.7l.7-1a19.5,19.5,0,0,0,3.2,1.5l-.4,1.2Zm55.7-1.2-.5-1.2,3.5-1.3.5,1.1-3.5,1.4Zm7-2.8-.4-1.1,3.4-1.4.5,1.1L656,1133Z" style="fill:#0c6ed6"/><path d="M590,1149s21.7,1.8,25.5.8,18.5-3.2,22-1.3,25.7-3,25.7-3l-1.1,8.3-24.6.2s-8.2-2.8-16.1-.9a25.8,25.8,0,0,1-8.4,1c-3.1-.3-21,0-21,0l-2-5.1Z" style="fill:#183b59"/><path d="M735.4,1132.4l-15.5-.4s-3.9-71.1-4.4-94.2c-.1-6.3-2.5-37.3-2.5-37.3L695.5,884l48.1-10.7-2,129.1s4.9,29.6,5,35.4c.4,23.2-11.2,94.7-11.2,94.7Z" style="fill:#ffe1d9"/><path d="M714.7,1146.6v8H687.5v-8c0-7.6,5.2-13.8,11.6-13.8h4.1c6.3,0,11.5,6.2,11.5,13.8Z" style="fill:#fff"/><path d="M737,1123.8s-6.7,4.6-12.9,3.5c-3.5-.6-7.6-4.3-7.6-4.3a12.8,12.8,0,0,1-3.6,5.1h-.4s-2.5-1-7.5-.5c-13.2,1.4-17.5,8.7-17.6,16.1l-.4,5.4v4.3l33,.7,9.7-4.9,5.8.3s7.4-.7,7.4-6.8c0-3.7-5.8-18.8-5.8-18.8Z" style="fill:#f1f2f2"/><path d="M731.3,1129.7c0,5.2-7.6,4.4-11.8,3-7.1-2.3-13-5.5-7.8-5.9s1.9-9.1,6.4-9.1,13.2,6.8,13.2,12Z" style="fill:#fff"/><path d="M716.2,1126.3h-1l.5-.9a6.8,6.8,0,0,1,5.6-3.4c3.2-.1,6.2,1.8,7,3a.6.6,0,0,1,.1.9c-.3.6-1.9.9-4.6.9s-4.5-.1-7.6-.4Zm5.1-3.1a5.4,5.4,0,0,0-3.9,1.9,66.3,66.3,0,0,0,9.6.2,8.6,8.6,0,0,0-5.7-2.1Z" style="fill:#0c6ed6"/><path d="M715.6,1126.8l-.8-.9,1.2-.2c3.7-.6,5.8.7,6.9,1.8a6,6,0,0,1,1.6,4.9,1,1,0,0,1-.7.8h-.2c-1.6,0-5.2-3.4-8-6.4Zm1.8.1c2.4,2.3,5,4.7,5.9,5a4.8,4.8,0,0,0-1.3-3.5,5.7,5.7,0,0,0-4.2-1.5Z" style="fill:#0c6ed6"/><path d="M710.9,1133.8h.1a.8.8,0,0,0,.5-.8c-.8-4.4,4.8-7,4.8-7s.5-.5.3-.8a.6.6,0,0,0-.8-.4c-.3.2-6.5,3-5.6,8.4a.7.7,0,0,0,.6.5Z" style="fill:#0c6ed6"/><path d="M688.5,1148.8c-.2-6.1.4-13.9,7.1-15.2,13.6-2.8,18.2,10.8,18.4,16.2s-25.1,1.7-25.1,1.7l-.4-2.6Z" style="fill:#fff"/><path d="M730.3,1149c-3.2-.6-12.6-.3-12.6-.3H686.6l.3,5.9h33.9s5.5-1.3,8.5-2.2,4.5,1,4.5,1l7.1-1.4,2.3-8c-4.1,3.7-11.7,5.2-12.9,5Z" style="fill:#183b59"/><path d="M706.3,1139.2h-2v-1.2h3.8v1.2h-1.8Zm5.6-.2v-1.3l3.7-.4.2,1.3Zm-11.4,0-3.7-.4v-1.2l3.7.3v1.3Zm29.7-.1-2.1-.4-1.6-.3.2-1.3,1.6.4,2.1.4-.2,1.2Zm-37.2-1a23.6,23.6,0,0,1-3.7-1.1l.5-1.2a20.8,20.8,0,0,0,3.5,1.1Zm41.1-.3-.8-1,2.9-2.4.8,1-2.9,2.4Zm-14.8,0-.2-1.2a12.1,12.1,0,0,1,3.9-.1v1.2a13.5,13.5,0,0,0-3.6.1Zm20.4-5.1-.9-.9q.6-.4.6-.6l.5-.2v.7l.4.4-.6.6Z" style="fill:#0c6ed6"/><rect x="688.5" y="668.5" width="16.6" height="42.82" style="fill:#edbbab"/><path d="M742.6,744.8c-.2,1.9-.5,3.8-.8,5.7-4.9,27.3-15.8,53-13,62.2,1.2,3.7-3.6,6.4-10.8,7.9-16.3,3.5-45.2,1.1-44.7-7.4,1.7-28.3-16.3-55.5-15.8-71.8.3-6.9,9.3-22.3,13.6-29.2a11.4,11.4,0,0,1,5.8-4.8l11.9-4.4,1.8,8.4,15.1-9.4s23.6,2.4,29,6.9c7.1,6,9.6,20.7,7.9,35.9Z" style="fill:#f1f2f2"/><path d="M712.2,757.8h-17a39.5,39.5,0,0,1,0-22.6h17A39.5,39.5,0,0,0,712.2,757.8Z" style="fill:#fff"/><path d="M661,730.1l.2.8c1.2,4.1,5.2,6.6,9.3,5.2a8.9,8.9,0,0,0,5-12l-.3-.8L661,730.1Z" style="fill:#1d8fbe"/><path d="M675.2,723.3a9.1,9.1,0,0,1-4.9,11.9,7,7,0,0,1-9.2-5,9.2,9.2,0,0,1,4-10.2A6.9,6.9,0,0,1,675.2,723.3Z" style="fill:#0ad"/><path d="M673.4,724.2a7.1,7.1,0,0,1-3.8,9.1,5.5,5.5,0,0,1-7.3-3.8,7.3,7.3,0,0,1,3.3-8A5.3,5.3,0,0,1,673.4,724.2Z" style="fill:#00afe2"/><g style="opacity:0.300000011920929"><path d="M669.4,732.6a5.1,5.1,0,0,1-7-3.1v.2a5.4,5.4,0,0,0,7.2,3.6,7,7,0,0,0,3.8-9h0A6.9,6.9,0,0,1,669.4,732.6Z" style="fill:#fff"/></g><path d="M665.8,722a5.3,5.3,0,0,1,7.6,2.2c0-.1-.1-.1-.1-.2a5.2,5.2,0,0,0-7.7-2.5,7.1,7.1,0,0,0-3.3,7.9h0a7.2,7.2,0,0,1,3.4-7.5Z" style="fill:#0095c8"/><g style="opacity:0.200000002980232"><path d="M665.1,720a9.3,9.3,0,0,0-4.1,10.1,8.1,8.1,0,0,0,3.4,4.6l6.2-15.5a7,7,0,0,0-5.6.8Z" style="fill:#fff"/></g><path d="M669.6,720.5c-3.2-.6-6.3,1.7-7.3,5.1s.4,6.9,3.4,8.1,7.2-.7,8.4-4.7S673.1,721.1,669.6,720.5Zm-3.7,12.6a6,6,0,0,1-3.2-7.4c.9-3.1,3.8-5.2,6.7-4.7s5.2,4.1,4.1,7.8S668.9,734.4,665.9,733.1Z" style="fill:#fff"/><path d="M666.2,732c.2.1.3,0,.4-.2s.1.2.1.3h.3c.1,0,.2,0,.2-.1a.4.4,0,0,0,.1-.3c.1.2.2.3.4.3a.5.5,0,0,0,.3-.5,16.4,16.4,0,0,0-.2-2.2v-.4h0c.3.2.5.4.5.5h.4l.4.5c0,.1.1.2,0,.3s-.3.3-.3.3-.1.5.2.6v-.3h.2c.1,0,.1-.2.1-.3h.7c.1,0,.2,0,.2-.1s.1.2.1.3.3-.3-.1-.6h0s.3,0,.3.1,0-.3-.4-.3,0-.3-.6.1,0-.1-.1-.2l-.3-.7a3.3,3.3,0,0,0,0-1l-.5-.4.3-.2c.1.3.5.5.6.1s.7.3.8.1a.6.6,0,0,0-.1.4c0,.1.1.7.5.8s-.3.8.2,1.1.4.2.1.1a2.9,2.9,0,0,0,1.1.9c-.1-.1-.2-.2-.1-.6s.4-1.4.9-3,.6-2.5-1.1-3.1a.9.9,0,0,0-.7,0,.8.8,0,0,0-.6,1h0c0,.2-.1.2-.2.3l-.5.2-.3-.2a2.8,2.8,0,0,1-.1-.9,2.1,2.1,0,0,1,.2-.8c.3-.2.6-.4.9-.3a.6.6,0,0,1,.7-.1c.1.1.1.1.1.2s.3-.3.2-.5l-.6-.2c.1-.2-.2-.5-.8-.5s-.8-.3-.8-.3a.7.7,0,0,0,.2.7,2.7,2.7,0,0,0-1.2,1.5,3.1,3.1,0,0,0-.2-1.8.8.8,0,0,0,.5-.5.9.9,0,0,1-.8,0c-.5-.3-.8-.2-.9,0h-.6c-.2,0-.1.4-.1.4h.2s.4,0,.5.3a.6.6,0,0,1,.5.6,1,1,0,0,1-.2.8,1,1,0,0,1-.5.6h-.3l-.4-.4c0-.1,0-.2.1-.2h0a.9.9,0,0,0,.1-1l-.6-.3c-1.4-.1-2,1.5-2.1,2s-.7,2.4-.8,2.6-.2.3-.3.3a1.5,1.5,0,0,0,1.1-.1s0-.1.1,0,.6-.6.6-.7a.6.6,0,0,0,.7-.4.5.5,0,0,0,.2-.4c-.1.3.2.5.6.3s.3.4.6.2v.3h-.5a1.8,1.8,0,0,0-.5.8l-.6.4a.1.1,0,0,0-.1.1c-.2-.6-.4-.4-.4-.4s-.4-.1-.4,0h.3c-.4,0-.4.3-.3.3h.2c-.1.1,0,.2.1.2s.4.1.4.3,0,.2,0,.3h.2c-.1.1-.1.2-.2.2s.5,0,.5-.2a1.4,1.4,0,0,1-.2-.4c.1-.1.2-.2.2-.3l.5-.2h.3c0,.1,0,.1.1.1s.3-.2.7-.1h-.2a.1.1,0,0,1-.1.1l-1.2,1.7a.4.4,0,0,0,0,.5.2.2,0,0,0,.4.1c-.1.1-.1.1-.1.2s.1.2.1.3h.5c0,.2,0,.4.2.4Z" style="fill:#fff"/><path d="M689.9,818.4H678.6c0-9.2-1.5-25.9-2.7-40.8-1.5-16.9-2.4-27.5-2.1-31.9.7-9.1,10.8-33.6,11.9-36.3l10.4,4.3c-4.1,9.8-10.7,27.3-11.1,32.9-.2,3.7.9,17.1,2.1,30.1C688.4,791.7,689.9,808.8,689.9,818.4Z" style="fill:#fff"/><circle cx="681" cy="782" r="2.7" style="fill:#f1f2f2"/><circle cx="678.5" cy="755.6" r="2.7" style="fill:#f1f2f2"/><circle cx="682.3" cy="730.3" r="2.7" style="fill:#f1f2f2"/><polygon points="687.8 698.6 679.9 705.7 680.2 721.6 690.3 709.1 687.8 698.6" style="fill:#183b59"/><polygon points="705.7 697.2 716.1 703.4 694 721.9 690.1 709.2 705.7 697.2" style="fill:#183b59"/><path d="M741.8,750.5c-4.9,27.3-15.8,53-13,62.2,1.2,3.7-3.6,6.4-10.8,7.9-1.5-3.5-5.1-13.2-2.9-23.6,2.7-12.8,9.4-45.9,27.5-52.2C742.4,746.7,742.1,748.6,741.8,750.5Z" style="fill:#e2e2e2"/><path d="M772.6,964l-26-3.7-6.6-.7v5.7l-27.5-2.8-9.9-1v5.8l-24.5-5-9.1-1.9v4.5l-28.1-3.8s20.8-80.5,29.6-142.5c1.9-13.7,49.8-4.7,55.4-1.4,15.6,9.4,25.1,46.4,26.7,55.9,8.4,48.4,20,90.9,20,90.9Z" style="fill:#183b59"/><polygon points="678.1 962.3 669 960.4 676.7 866.9 678.1 962.3" style="fill:#0c6ed6"/><polygon points="712.5 962.5 702.6 961.5 702.6 963.2 702.3 963.1 704.2 868.5 712.5 962.5" style="fill:#0c6ed6"/><polygon points="746.6 960.3 740 959.6 740 960.8 730.9 866.9 746.6 960.3" style="fill:#0c6ed6"/><rect x="670.2" y="810.8" width="61.8" height="10.38" style="fill:#0c6ed6"/><rect x="710.5" y="806.6" width="4.2" height="18.07" style="fill:#183b59"/><rect x="675.6" y="806.9" width="19.5" height="17.38" style="fill:#b3b3b3"/><path d="M656.2,552.8c1.7,5.6,7.3,17.7,4.5,24.2-20,46.8-13.8,79.2-13.8,79.2s-8.8-21.4-9.2-57.5c-.3-34.1,18.5-45.9,18.5-45.9Z" style="fill:#aa3d1b"/><path d="M752.9,624.6c0,21.7-9.9,39.7-24.2,52.5-9.3,8.4-27,15.9-39.4,15.9s-25.6-5.9-35.4-15.5c-13.2-12.9-24.8-30.3-12.8-52,7.6-13.7-2-19.7-.2-33.4,2.2-16.8,11.1-35.7,16.1-36.4,14.4-2.1,20.4-1.1,32.8-1.1,31.5,0,63.1,34.3,63.1,70Z" style="fill:#ffe1d9"/><path d="M682.1,605.9a16.7,16.7,0,0,1,4.4-2.3,35.9,35.9,0,0,1,4.7-1.2,45.2,45.2,0,0,1,9.7-.6,43.7,43.7,0,0,1,9.6,1.5,26,26,0,0,1,4.7,1.6,13.4,13.4,0,0,1,4,2.7,17.2,17.2,0,0,0-4.5-1.6l-4.6-.8a73,73,0,0,0-9.3-.8,73.7,73.7,0,0,0-9.4,0l-4.6.4a26.6,26.6,0,0,0-4.7,1.1Z" style="fill:#5e2613"/><path d="M662,604.7l-5.3-.6h-5.1l-5.3.3a49.5,49.5,0,0,1-5.4-.1,20.8,20.8,0,0,1,5-2.4,26.2,26.2,0,0,1,5.6-.9,21.5,21.5,0,0,1,5.6.7,11.2,11.2,0,0,1,4.9,3Z" style="fill:#5e2613"/><path d="M707.2,619.8c-1-.1,3.2,4.1,4.1,4s4.5-7.6,4.5-7.6-4.6,4-8.6,3.6Z" style="fill:#5e2613"/><path d="M702.7,616.2c-1.2.1,4.3,4.7,5.5,4.4s4.8-10.4,4.8-10.4-5.3,5.9-10.3,6Z" style="fill:#5e2613"/><path d="M697.8,616c-1.2.4,5.5,3.1,6.6,2.4s1.2-11.4,1.2-11.4-3.1,7.3-7.8,9Z" style="fill:#5e2613"/><path d="M713.2,627.6c.5,5.9-5.8,9.9-12.9,10.6s-14.7-2.8-15.2-8.6,6.1-12.1,13.3-12.7,14.2,4.9,14.8,10.8Z" style="fill:#fff"/><circle cx="696.9" cy="628.3" r="9.3" style="fill:#007493"/><circle cx="695.7" cy="630" r="7.8" style="fill:#002633"/><g style="opacity:0.5"><circle cx="695" cy="632.3" r="2.9" style="fill:#f2f2f2"/></g><path d="M685.8,625.4a19.5,19.5,0,0,1,5.7-7.1,12.8,12.8,0,0,1,8.9-2.6,14.4,14.4,0,0,1,8.4,4,13.4,13.4,0,0,1,4.4,7.9,16.5,16.5,0,0,0-5.2-7,16,16,0,0,0-7.7-3.3,12.9,12.9,0,0,0-8.1,2,26.4,26.4,0,0,0-6.4,6.1Z" style="fill:#5e2613"/><path d="M687,634.3a21.5,21.5,0,0,0,6.3,2.2,29.4,29.4,0,0,0,6.6.5,26.7,26.7,0,0,0,6.4-1,15.3,15.3,0,0,0,5.8-3.3,11.7,11.7,0,0,1-5.3,4.5,16.4,16.4,0,0,1-6.9,1.4,20.2,20.2,0,0,1-6.9-.9,12.4,12.4,0,0,1-6-3.4Z" style="fill:#5e2613"/><path d="M641.6,617.3c.9-.5-1.4,4.9-2.4,5.1s-6.7-5.5-6.7-5.5S638.1,619,641.6,617.3Z" style="fill:#5e2613"/><path d="M644.8,615.4c1.3-.1-3.5,5.2-4.7,5.1s-6.1-9.4-6.1-9.4,6,4.9,10.8,4.4Z" style="fill:#5e2613"/><path d="M648,615.2c1.1.4-5.5,3-6.5,2.4s-1.2-11.2-1.2-11.2S643.4,613.5,648,615.2Z" style="fill:#5e2613"/><path d="M638.3,626.6c-.4,5.8,4.5,9.7,10.2,10.3s11.6-2.7,12-8.4-4.9-12-10.5-12.4C642.7,615.4,638.7,620.8,638.3,626.6Z" style="fill:#fff"/><ellipse cx="647.1" cy="627.2" rx="9.1" ry="8.5" transform="translate(-34.8 1216.3) rotate(-84.9)" style="fill:#007493"/><ellipse cx="646.8" cy="628.7" rx="7.6" ry="7.1" transform="translate(-36.5 1217.4) rotate(-84.9)" style="fill:#002633"/><g style="opacity:0.5"><ellipse cx="645.3" cy="631.3" rx="2.9" ry="2.7" transform="translate(-40.6 1218.3) rotate(-84.9)" style="fill:#f2f2f2"/></g><path d="M658.9,633.1a10.7,10.7,0,0,1-5,2.2,18,18,0,0,1-5.2.5,18.4,18.4,0,0,1-5.1-1,11.4,11.4,0,0,1-4.5-3.2,10,10,0,0,0,4.2,4.4,13.1,13.1,0,0,0,5.4,1.4,14.7,14.7,0,0,0,5.5-.8,10.4,10.4,0,0,0,4.7-3.4Z" style="fill:#5e2613"/><path d="M638.6,624a11.5,11.5,0,0,1,.7-3.6,14,14,0,0,1,1-1.6,9.3,9.3,0,0,1,1.3-1.5,11.1,11.1,0,0,1,3.4-1.8l1.9-.4h1.9a10.9,10.9,0,0,1,6.9,3,13.3,13.3,0,0,1,3.9,6.1,20.8,20.8,0,0,0-4.8-5,10.6,10.6,0,0,0-6.1-2.2h-1.6a4.5,4.5,0,0,0-1.6.3,7.9,7.9,0,0,0-3,1.2,8.4,8.4,0,0,0-2.3,2.3,13.7,13.7,0,0,0-1.6,3.2Z" style="fill:#5e2613"/><path d="M666.6,630.2c.9,4.9-1.9,9.9-6.1,12.3a6.9,6.9,0,0,1-1.9,1l.6-1.4c1.9,3.5,4.2,7.5,8.2,8.9-2.3.2-4.5-1.1-6.1-2.6a19.8,19.8,0,0,1-4.1-5.4,1.1,1.1,0,0,1,.6-1.5,14.9,14.9,0,0,0,8.8-11.3Z" style="fill:#edbbab"/><path d="M660.3,659.6a32.5,32.5,0,0,0,5.8,1.4,36.3,36.3,0,0,0,5.7.3l5.8-.3,5.9-.7a18.5,18.5,0,0,1-5.5,2.6,25.9,25.9,0,0,1-6.2,1,21.7,21.7,0,0,1-6.2-1,12.9,12.9,0,0,1-5.2-3.3Z" style="fill:#edbbab"/><path d="M714,542.6c15.3,29.2,28,57.9,24.4,83.4s-8.9,67,10.9,95.4c14.4,20.7,17.5,51.7,17.5,51.7s7.2-35.9-4.2-63.7c-6.3-15.3-5.8-42.8,2.5-73.1s1.4-68.6-13.3-87-37.8-6.6-37.8-6.6Z" style="fill:#aa3d1b"/><path d="M650.6,539a57.6,57.6,0,0,1,20.2-13.4,58.6,58.6,0,0,1,25.1-3.8,64.5,64.5,0,0,1,13,2.3,61.4,61.4,0,0,1,12.2,5,69.5,69.5,0,0,1,20.3,16.6,74.2,74.2,0,0,1,12.9,22.7,65.2,65.2,0,0,1,1.8,6.3,41.1,41.1,0,0,1,1.2,6.7,69.8,69.8,0,0,1,.2,12.9,91,91,0,0,1-5.3,24c-.7,1.9-1.4,3.7-2.2,5.6s-1.6,3.6-2.5,5.4a82.5,82.5,0,0,1-6,10.4l.7-11.8.3-5.8c.1-1.9.1-3.8.2-5.7a159.7,159.7,0,0,0-.7-22,74.1,74.1,0,0,0-1.8-10,30.9,30.9,0,0,0-1.4-4.6,38,38,0,0,0-1.8-4.7,72.9,72.9,0,0,0-10.5-17,64.4,64.4,0,0,0-32.8-21.4,67.6,67.6,0,0,0-20.8-1.9,87.8,87.8,0,0,0-11,1.5c-3.7.7-7.5,1.7-11.3,2.8Z" style="fill:#3f8cff"/><path d="M750.5,640.4c-2.8,5.6-7.8,8.8-12.1,8.1a6,6,0,0,1-1.9-.6c-2.9-1.5-4.4-4.8-4.3-8.7a15.5,15.5,0,0,1,1.8-7c3.1-6.4,9.4-9.7,14-7.4s5.7,9.3,2.5,15.6Z" style="fill:#ffe1d9"/><path d="M744.5,641.7a15.8,15.8,0,0,1-6.1,6.8,6,6,0,0,1-1.9-.6c-2.9-1.5-4.4-4.8-4.3-8.7a24.5,24.5,0,0,1,1.2-3.1c2.7-5.4,7.4-8.7,10.5-7.1s3.3,7.2.6,12.7Z" style="fill:#edbbab"/><path d="M632,574.5c3.5,11.9,32.3,22.9,56.3,31.5,1.6.6-10.7-15.8-9.2-15.3s16.2,17.8,17.3,18.2-3.5-9.8-2.3-9.3,9.1,11.8,10.5,12.3-1.1-6.9,1-6c4.7,1.9,14,12.3,15.2,13.7,11.3,13.2,8.4,37,8.4,37s22.3-51.8,6.6-86.9-50-43.7-74.3-34.9c-34.7,12.7-32.6,29.3-29.5,39.7Z" style="fill:#b74020"/><path d="M641.8,557a6.6,6.6,0,0,0,.5,1.5,1.6,1.6,0,0,0,.4.7l.4.7a18.8,18.8,0,0,0,1.8,2.4,57.7,57.7,0,0,0,4.2,4.4c.7.7,1.5,1.4,2.2,2.2l2.2,2.1,4.4,4.3c3,3,6,5.9,8.8,9.1a91.8,91.8,0,0,1,8.1,10.1,46.6,46.6,0,0,1-6.1-2.6c-1.9-1-3.8-2.2-5.6-3.3a80.3,80.3,0,0,1-10.1-8.2c-1.5-1.6-3-3.2-4.4-4.9a53,53,0,0,1-3.9-5.4,26.7,26.7,0,0,1-2.8-6.2,10.4,10.4,0,0,1-.7-3.5,7.8,7.8,0,0,1,.5-3.4Z" style="fill:#c94623"/><path d="M648.5,547.9a51.4,51.4,0,0,1,18.3,5.3c1.4.8,2.9,1.5,4.2,2.4l2.1,1.3,1.9,1.4a63.2,63.2,0,0,1,7.4,6.3,64.8,64.8,0,0,1,11.3,15.6,56.1,56.1,0,0,1,3.6,8.8,39,39,0,0,1,1.2,4.6,25.4,25.4,0,0,1,.7,4.7c-1.7-2.7-3.3-5.3-5-7.8s-3.4-5-5.2-7.5a137.2,137.2,0,0,0-11.6-13.5l-1.5-1.5-1.7-1.6-1.6-1.5-1.7-1.4c-2.2-2-4.5-3.8-6.9-5.6-4.8-3.6-10-6.7-15.4-10Z" style="fill:#c94623"/><path d="M658.5,541.1c2.3.3,4.6.5,6.8,1l3.4.7,3.3,1c2.2.6,4.4,1.5,6.5,2.3l3.2,1.4,1.6.7,1.5.8A85,85,0,0,1,707,565.8l2.4,2.6,2.3,2.6c1.4,1.9,2.9,3.7,4.2,5.6a101.1,101.1,0,0,1,7.3,11.8,117.9,117.9,0,0,1,5.6,12.6c.7,2.1,1.4,4.3,2,6.5l.9,3.4.6,3.4c-2.1-4.1-4.3-8-6.6-11.9s-4.7-7.6-7.2-11.2-5.2-7.2-7.9-10.6-5.6-6.8-8.6-9.9a124.9,124.9,0,0,0-20-17l-1.3-.9-1.4-.9-2.8-1.7-2.9-1.7-2.9-1.6c-3.9-2.1-8-3.8-12.2-5.8Z" style="fill:#c94623"/><path d="M761.5,775.1c5.9,1.4,7.3,5,8.5,9.6,2.1,8.5-24.8,55.2-47.2,82.9l-6.2-10.3-.5-.8s29-63.1,33.5-72.4c2.1-4.3,7.7-10,11.8-9.1Z" style="fill:#e2e2e2"/><path d="M728.5,708.4c14.3,1.8,29.2,22.1,39.8,65.4,3.5,14.4.9,23.2-3.9,23.6-7.5.5-20.4-.8-19.5-3.4,1.5-4.2,1-15.5-.2-18.9-7-21.3-16.1-31.3-17.3-35.2-3-9.7-9-32.7,1.1-31.4Z" style="fill:#e2e2e2"/><path d="M714.8,884.6c.6-2.5,2.6-10.4,3-12.3,1.5-5.6,1.1-11.2-4.2-11.7-7.7-1.4-22.2,5.4-25.7,10-1,1.3,3.6,2.1,9.2-.6s-11.1,10.7-8.4,13.9c.9,1.6,6.4-3.8,9.2-6.8,1-1,2.1,1.3,1.4,2-2.5,2.6-8.2,11.4-6.1,12.6s3.3-.1,6.3-4.2c.8-1,2.8-3.6,3.4-4.5s2.4-1.1,1.4.2c-2.5,3.2-5.9,10.1-4.2,10.8s9.5-8.6,10.6-11.9c1.2-1.2.4,2.2.4,2.5C708.5,895,712.4,894.8,714.8,884.6Z" style="fill:#ffe1d9"/><polygon points="725.1 858.9 717.4 867.4 712.8 861.8 718.7 852.5 725.1 858.9" style="fill:#ffe1d9"/><path d="M734.1,862.6l-11.6,8.5s-16.1-14.2-14.4-16.4l8.4-10.8Z" style="fill:#fff"/><path d="M363,778.1l-1,1.8.7-.2a2,2,0,0,1,1.1,0,32,32,0,0,0,5.4,1.5,1.8,1.8,0,0,1,1.5,2.1,1.8,1.8,0,0,1-2,1.6,42.4,42.4,0,0,1-5.5-1.5l-3.8,1-.2.3,3.4-.2a2,2,0,0,1,1.1.3l3.9,2.4a1.9,1.9,0,0,1,.6,2.5,1.9,1.9,0,0,1-2.6.6l-3.3-2.1-5.3.4a.8.8,0,0,1-.2.5,27.3,27.3,0,0,1-8.5,9.1h.2l13.4-3.5h0l4-1,4.7-1.2s.4.7,1.2,1.8a22.5,22.5,0,0,1,6.7-4.2V780.1a38.8,38.8,0,0,1-8.6-3.8l-7.3,1.1C362.9,777.7,363.1,777.9,363,778.1Z" style="fill:none"/><polygon points="341.1 886.6 341.8 885.8 341.1 886.5 341.1 886.6" style="fill:none"/><path d="M355.6,776.8a10.7,10.7,0,0,1,2.6-1.9,29.6,29.6,0,0,1,7.1-1.7,49.6,49.6,0,0,1-9.1-9.2C357.1,770,356.6,774,355.6,776.8Z" style="fill:none"/><path d="M438.4,805.8l-4.6,30.9c4.8-1,9.4-2.4,12.1-4.3l1,6.7a114,114,0,0,1-14,3.5l-.6,3.7c5.7-.8,11.7-2.1,15-4.3-2-16-5.6-31.4-9-38.5A4.4,4.4,0,0,1,438.4,805.8Z" style="fill:#183b59"/><path d="M429,868.4c7.3-.2,12.4-.3,13.3-.2s8.8,12.1.9,23a6.7,6.7,0,0,1-2,1.7h0c7.6-3.8,8.7-23.7,6.8-44.1a120.4,120.4,0,0,1-16.5,3.2Z" style="fill:#183b59"/><path d="M447.5,843.4l.3,2.8Z" style="fill:#183b59"/><path d="M445.9,832.4c-2.7,1.9-7.3,3.3-12.1,4.3l-.9,5.9a114,114,0,0,0,14-3.5Z" style="fill:#0c6ed6"/><path d="M431.5,852a120.4,120.4,0,0,0,16.5-3.2h.1l-.3-2.5-.3-2.8-.2-1.4h0c-3.3,2.2-9.3,3.5-15,4.3Z" style="fill:#0c6ed6"/><path d="M399.6,790.6V780.4a40.5,40.5,0,0,1-15.9.9,43.7,43.7,0,0,1-5.2-1.2v10.1a22.5,22.5,0,0,0-6.7,4.2,19.8,19.8,0,0,0,6.7,5.5l.9.4a23.4,23.4,0,0,0,9.1,1.7,22.7,22.7,0,0,0,8.9-1.7l2.2-1.2a19.6,19.6,0,0,0,5.5-5A19.2,19.2,0,0,0,399.6,790.6Z" style="fill:#edbbab"/><path d="M413.4,794h0Z" style="fill:#183b59"/><path d="M362.8,894.7s-.9-8.5-1.1-11.4a3.7,3.7,0,0,1-.1-1.1c-1.3,1.5-2.6,3.8-5.8,5.3a20.6,20.6,0,0,1-4.5,1.6l3.4,22.1v-.3h3.5v-3.2h4.2v3.2h16.3V908h20.8v2.9h12.7v-3.2h4.2v3.2h5.9v1.5l2.4-15.8C400.8,898.6,362.8,894.7,362.8,894.7Z" style="fill:#183b59"/><path d="M411.1,793.4l1,.2Z" style="fill:#183b59"/><path d="M364.6,1126.9c3.4,0,7.8.7,8.6,1.3s.9,2.2.9,4.1a20.1,20.1,0,0,1,5.8,3.8h0l.8.7v-10.3l-16.1-1.8Z" style="fill:#ffe1d9"/><path d="M369.4,1131.4a15.1,15.1,0,0,1,4.7.9c0-1.9-.3-3.6-.9-4.1s-5.2-1.3-8.6-1.3-4.3.4-4.2,1.3.5,3.4.6,4.6A19.5,19.5,0,0,1,369.4,1131.4Z" style="fill:#74777b"/><path d="M376.1,1148.1c-4.3-1.7-1.1-8,3.8-12a20.1,20.1,0,0,0-5.8-3.8,15.1,15.1,0,0,0-4.7-.9,19.5,19.5,0,0,0-8.4,1.4,15.4,15.4,0,0,0-6.3,4.8c3.9,4,6,9,2.2,10.5a14.8,14.8,0,0,1-6.3.8,18.2,18.2,0,0,0,0,3.3h36.1a2.5,2.5,0,0,0,.4-1.2,11.5,11.5,0,0,0-.3-2.6C384.1,1148.9,379.5,1149.5,376.1,1148.1Z" style="fill:#f1f2f2"/><polygon points="350.3 1152.2 350.9 1157.3 386.4 1157.3 386.9 1152.2 386.7 1152.2 350.6 1152.2 350.3 1152.2" style="fill:#74777b"/><path d="M379.9,1136.1c-4.9,4-8.1,10.3-3.8,12s8,.8,10.7.3a23,23,0,0,0-6.1-11.6l-.8-.7Z" style="fill:#74777b"/><path d="M356.9,1148.1c3.8-1.5,1.7-6.5-2.2-10.5a21.7,21.7,0,0,0-4.1,11.3A14.8,14.8,0,0,0,356.9,1148.1Z" style="fill:#74777b"/><polygon points="422.3 912.6 422.3 919.6 416.4 919.6 416.4 922.8 412.2 922.8 412.2 919.6 399.5 919.6 399.5 922.5 378.7 922.5 378.7 919.6 362.4 919.6 362.4 922.8 358.2 922.8 358.2 919.6 354.7 919.6 354.7 912.6 354.6 912.6 354.6 944.7 354.6 944.7 359.9 1114.6 383.9 1116 386.6 944.7 390.4 944.7 393.1 1116 417.1 1114.6 422.4 944.7 422.4 944.7 422.4 944.7 422.4 912.6 422.3 912.6" style="fill:#08b"/><polygon points="412.4 1124.7 416.8 1124.2 416.8 1124.2 412.4 1124.7 412.4 1124.7" style="fill:#08b"/><polygon points="355.8 1114.4 357.4 1124 364.6 1124.8 380.7 1126.5 385 1126.9 386.2 1116.2 383.9 1116 359.9 1114.6 355.8 1114.4" style="fill:#0be"/><path d="M396.3,1126.4v10.4l.8-.7h0a20.1,20.1,0,0,1,5.8-3.8c0-1.9.3-3.6.9-4.1s5.2-1.3,8.6-1.3v-2.2h0Z" style="fill:#ffe1d9"/><polygon points="390 1116.2 391.2 1126.9 396.3 1126.4 412.4 1124.7 416.8 1124.2 418.8 1124 420.4 1114.4 417.1 1114.6 393.1 1116 390 1116.2" style="fill:#0be"/><path d="M402.9,1132.3a15.1,15.1,0,0,1,4.7-.9,19.5,19.5,0,0,1,8.4,1.4c.1-1.2.3-2.8.5-4.6s-1.7-1.2-4.1-1.3-7.8.7-8.6,1.3S402.9,1130.4,402.9,1132.3Z" style="fill:#74777b"/><path d="M407.6,1131.4a15.1,15.1,0,0,0-4.7.9,20.1,20.1,0,0,0-5.8,3.8c4.9,4,8.1,10.3,3.8,12s-8,.8-10.7.3a11.5,11.5,0,0,0-.3,2.6,2.5,2.5,0,0,0,.4,1.2h36.1a18.2,18.2,0,0,0,0-3.3,14.8,14.8,0,0,1-6.3-.8c-3.8-1.5-1.7-6.5,2.2-10.5a15.4,15.4,0,0,0-6.3-4.8A19.5,19.5,0,0,0,407.6,1131.4Z" style="fill:#f1f2f2"/><polygon points="390.1 1152.2 390.6 1157.3 426.1 1157.3 426.7 1152.2 426.4 1152.2 390.3 1152.2 390.1 1152.2" style="fill:#74777b"/><path d="M400.9,1148.1c4.3-1.7,1.1-8-3.8-12h0l-.8.7a23,23,0,0,0-6.1,11.6C392.9,1148.9,397.5,1149.5,400.9,1148.1Z" style="fill:#74777b"/><path d="M420.1,1148.1a14.8,14.8,0,0,0,6.3.8,21.7,21.7,0,0,0-4.1-11.3C418.4,1141.6,416.3,1146.6,420.1,1148.1Z" style="fill:#74777b"/><path d="M343.9,723.2c-.4-2.5-1-5.6-1.5-9.1a4.8,4.8,0,0,0-4.8-.3c-4.2,2.1-6.4,10.2-4.9,18.2s6.2,12.6,10.5,10.6a7.5,7.5,0,0,0,2.4-2.3A75.2,75.2,0,0,1,343.9,723.2Z" style="fill:#ffe1d9"/><path d="M431.9,753.7a6.6,6.6,0,0,0,1.7,2.8c3.4,3.3,9.3.2,13.1-7s4.2-15.5.8-18.8a4.6,4.6,0,0,0-4.5-1.1,40.5,40.5,0,0,1-4.2,7.8A73.2,73.2,0,0,1,431.9,753.7Z" style="fill:#ffe1d9"/><path d="M437.3,739.2l2-19.9a27.1,27.1,0,0,0-2-13.8,13.3,13.3,0,0,0-1.1-2.4l-4,3.1-10.9-5.8c.4,1,.7,2.1,1,3.1l-5.1-5.3-8.2-4.4,8.1,14.7a72.5,72.5,0,0,1-21.6-9.1c-4.3-2.7-18.2-13.8-18.2-13.8H358.9l-8.1,17.1-5.7,26.5s-.5-2.4-1.2-6.1a75.2,75.2,0,0,0,1.7,17.1,64.2,64.2,0,0,0,8.1,20.1,1.8,1.8,0,0,1,2.1,1.4,20.7,20.7,0,0,1,.4,2.2,49.6,49.6,0,0,0,9.1,9.2l5.3-.7a1.9,1.9,0,0,1,2,1.7,1.8,1.8,0,0,1-1.6,2h-1.1a38.8,38.8,0,0,0,8.6,3.8,43.7,43.7,0,0,0,5.2,1.2,40.5,40.5,0,0,0,15.9-.9,43.3,43.3,0,0,0,13.7-6.2c7.3-4.7,13.7-12,18.6-20.5a73.2,73.2,0,0,0,6.9-16.3A6.5,6.5,0,0,1,437.3,739.2Zm-39.9,16.1a11.2,11.2,0,0,1-9.5,2.3c-3.5-.9-6.7-4-7.2-6.2,2.1,1.4,6.6,2.4,8,2.7A79.5,79.5,0,0,0,397.4,755.3Zm-15.5-16.1a.5.5,0,0,1,.1-.3c.1-.2.2-.3.2-.5l.6-.7a22.5,22.5,0,0,1,2.4-2.1l2.3-2a20.9,20.9,0,0,0,2.2-2A5.3,5.3,0,0,0,391,729a2.9,2.9,0,0,1,.1,1.6,9.4,9.4,0,0,1-.6,1.5,12.4,12.4,0,0,1-1.9,2.6,23.9,23.9,0,0,1-2.2,2.3c-.7.7-1.5,1.4-2.1,2.1a1,1,0,0,0-.4.5.1.1,0,0,0-.1.1h-.1a3.4,3.4,0,0,0,.1,1,5.9,5.9,0,0,0,1.3,2.3,20.9,20.9,0,0,0,2.2,2,13.8,13.8,0,0,0,2.5,1.7,4,4,0,0,1-1.5-.3,3.9,3.9,0,0,1-1.5-.6,11.7,11.7,0,0,1-2.8-1.7,6.5,6.5,0,0,1-2-2.8,4.4,4.4,0,0,1-.2-2Zm-24.7-36.7c8.9-8.6,17.5-2.1,21.6,1.1l1.9,1.4a2.4,2.4,0,0,1,.7,3.3,2.3,2.3,0,0,1-2,1,2,2,0,0,1-1.3-.4l-2.2-1.5c-5.3-4.1-9.9-6.8-15.3-1.5a2.4,2.4,0,1,1-3.4-3.4Zm20,25.3a10.7,10.7,0,0,1-5.5,2.2,19.6,19.6,0,0,1-5.9-.2,15.8,15.8,0,0,1-5.6-2.1,9.5,9.5,0,0,1-3.9-4.5l.9,1a6.5,6.5,0,0,1-1.1-5.4,13.4,13.4,0,0,1,.7-1.8,12.7,12.7,0,0,1,4-4.3,11.9,11.9,0,0,1,7.6-2.2,11,11,0,0,1,7.2,3.3,18.2,18.2,0,0,1,3.9,6.7.1.1,0,0,1-.1-.1,7.7,7.7,0,0,1,.1,3.7,6.8,6.8,0,0,1-3.2,4.1Zm49.6,6.3a9.3,9.3,0,0,1-5,3.1,15.1,15.1,0,0,1-6,.3,18.6,18.6,0,0,1-5.7-1.6,11.1,11.1,0,0,1-4.6-3.7l.8.6a6.5,6.5,0,0,1-1.8-4.9,6.7,6.7,0,0,1,1.2-3.5.1.1,0,0,1-.1.1,16.8,16.8,0,0,1,5.7-5.2,10.8,10.8,0,0,1,7.9-1,12.9,12.9,0,0,1,6.6,4.4,12.1,12.1,0,0,1,2.4,5.3,6.5,6.5,0,0,1,.2,2,6.9,6.9,0,0,1-2.7,4.8Zm2-16.9c-2.7-1.5-9.6-.7-14.2-.2l-5.2.5a2.4,2.4,0,1,1-.2-4.8c1.3,0,3-.2,4.8-.4,5.9-.7,13.1-1.5,17.1.8a2.4,2.4,0,0,1-1.2,4.4A2,2,0,0,1,428.8,717.2Z" style="fill:#ffe1d9"/><path d="M360.6,705.9c5.4-5.3,10-2.6,15.3,1.5l2.2,1.5a2,2,0,0,0,1.3.4,2.3,2.3,0,0,0,2-1,2.4,2.4,0,0,0-.7-3.3l-1.9-1.4c-4.1-3.2-12.7-9.7-21.6-1.1a2.4,2.4,0,1,0,3.4,3.4Z" style="fill:#42210b"/><path d="M432,716.3a2.2,2.2,0,0,0-.9-3.2c-4-2.3-11.2-1.5-17.1-.8-1.8.2-3.5.4-4.8.4a2.4,2.4,0,1,0,.2,4.8l5.2-.5c4.6-.5,11.5-1.3,14.2.2a2,2,0,0,0,1.1.3A2.2,2.2,0,0,0,432,716.3Z" style="fill:#42210b"/><path d="M428.4,730a13.2,13.2,0,0,0-3.5-6.6,11.4,11.4,0,0,0-6.1-3.7,10.5,10.5,0,0,0-7,.5,25.5,25.5,0,0,0-6.1,4.2,6.7,6.7,0,0,0-1.2,3.5,6.5,6.5,0,0,0,1.8,4.9,20.6,20.6,0,0,0,4.2,2.1,25.7,25.7,0,0,0,5.5,1.2,17.5,17.5,0,0,0,5.6,0,12.3,12.3,0,0,0,4.1-1.3A6.9,6.9,0,0,0,428.4,730Zm-3.6-2.1a8,8,0,1,1-7.4-8.4A7.9,7.9,0,0,1,424.8,727.9Z" style="fill:#fff"/><path d="M428.2,728a12.3,12.3,0,0,1,.2,2A6.5,6.5,0,0,0,428.2,728Z" style="fill:#fff"/><path d="M417.4,719.5a7.9,7.9,0,1,0,7.4,8.4A7.9,7.9,0,0,0,417.4,719.5Zm6.2,7.1a6.5,6.5,0,0,1-7,6.2,6.6,6.6,0,0,1-6.2-7,6.8,6.8,0,0,1,3.8-5.6,2.3,2.3,0,0,1,1.8-.6h1.4A6.6,6.6,0,0,1,423.6,726.6Z" style="fill:#a67c52"/><path d="M417.4,719.6h-1.1a2.6,2.6,0,0,1,2,2.6,2.4,2.4,0,0,1-2.6,2.3,2.3,2.3,0,0,1-2.3-2.6,2.1,2.1,0,0,1,.8-1.7,6.8,6.8,0,0,0-3.8,5.6,6.6,6.6,0,0,0,6.2,7,6.5,6.5,0,0,0,7-6.2A6.6,6.6,0,0,0,417.4,719.6Z" style="fill:#2b1407"/><path d="M415.7,724.5a2.4,2.4,0,0,0,2.6-2.3,2.6,2.6,0,0,0-2-2.6H416a2.3,2.3,0,0,0-1.8.6,2.1,2.1,0,0,0-.8,1.7A2.3,2.3,0,0,0,415.7,724.5Z" style="fill:#f2f2f2"/><path d="M418.8,719.7a11.4,11.4,0,0,1,6.1,3.7,13.2,13.2,0,0,1,3.5,6.6,12.3,12.3,0,0,0-.2-2,12.1,12.1,0,0,0-2.4-5.3,12.9,12.9,0,0,0-6.6-4.4,10.8,10.8,0,0,0-7.9,1,16.8,16.8,0,0,0-5.7,5.2.1.1,0,0,0,.1-.1,25.5,25.5,0,0,1,6.1-4.2A10.5,10.5,0,0,1,418.8,719.7Z" style="fill:#42210b"/><path d="M416,736.1a25.7,25.7,0,0,1-5.5-1.2,20.6,20.6,0,0,1-4.2-2.1l-.8-.6a11.1,11.1,0,0,0,4.6,3.7,18.6,18.6,0,0,0,5.7,1.6,15.1,15.1,0,0,0,6-.3,9.3,9.3,0,0,0,5-3.1l-1.1.7a12.3,12.3,0,0,1-4.1,1.3A17.5,17.5,0,0,1,416,736.1Z" style="fill:#42210b"/><path d="M379.5,724.1a7.7,7.7,0,0,0-.1-3.7,21.9,21.9,0,0,0-4.5-5.8,11,11,0,0,0-6.6-2.7,12,12,0,0,0-6.9,1.7,13.9,13.9,0,0,0-5.3,5.2,6.5,6.5,0,0,0,1.1,5.4,13.3,13.3,0,0,0,3.5,2.5,17.3,17.3,0,0,0,5.3,1.7,27.5,27.5,0,0,0,5.7.5,18.3,18.3,0,0,0,4.6-.7A6.8,6.8,0,0,0,379.5,724.1Zm-4-2.4a7.9,7.9,0,0,1-9.6,5.8,7.8,7.8,0,0,1-5.8-9.6,8,8,0,0,1,9.6-5.8A8.1,8.1,0,0,1,375.5,721.7Z" style="fill:#fff"/><path d="M356.1,718.8a13.4,13.4,0,0,1,.7-1.8A13.4,13.4,0,0,0,356.1,718.8Z" style="fill:#fff"/><path d="M369.7,712.1a8,8,0,0,0-9.6,5.8,7.8,7.8,0,0,0,5.8,9.6,7.9,7.9,0,0,0,9.6-5.8A8.1,8.1,0,0,0,369.7,712.1Zm4.4,9a6.6,6.6,0,0,1-12.8-3.2,6.1,6.1,0,0,1,1.8-3.1v-.2a2.5,2.5,0,0,1,3-1.8l.5.2a6.2,6.2,0,0,1,2.7.1A6.6,6.6,0,0,1,374.1,721.1Z" style="fill:#a67c52"/><path d="M369.3,713.1a6.2,6.2,0,0,0-2.7-.1,2.4,2.4,0,0,1,1.3,2.8,2.5,2.5,0,0,1-3,1.8,2.4,2.4,0,0,1-1.8-2.8,6.1,6.1,0,0,0-1.8,3.1,6.6,6.6,0,1,0,8-4.8Z" style="fill:#2b1407"/><path d="M364.9,717.6a2.5,2.5,0,0,0,3-1.8,2.4,2.4,0,0,0-1.3-2.8l-.5-.2a2.5,2.5,0,0,0-3,1.8v.2A2.4,2.4,0,0,0,364.9,717.6Z" style="fill:#f2f2f2"/><path d="M361.4,713.6a12,12,0,0,1,6.9-1.7,11,11,0,0,1,6.6,2.7,21.9,21.9,0,0,1,4.5,5.8.1.1,0,0,0,.1.1,18.2,18.2,0,0,0-3.9-6.7,11,11,0,0,0-7.2-3.3,11.9,11.9,0,0,0-7.6,2.2,12.7,12.7,0,0,0-4,4.3,13.4,13.4,0,0,0-.7,1.8A13.9,13.9,0,0,1,361.4,713.6Z" style="fill:#42210b"/><path d="M366,728.4a17.3,17.3,0,0,1-5.3-1.7,13.3,13.3,0,0,1-3.5-2.5l-.9-1a9.5,9.5,0,0,0,3.9,4.5,15.8,15.8,0,0,0,5.6,2.1,19.6,19.6,0,0,0,5.9.2,10.7,10.7,0,0,0,5.5-2.2l-.9.4a18.3,18.3,0,0,1-4.6.7A27.5,27.5,0,0,1,366,728.4Z" style="fill:#42210b"/><path d="M382,741.5a6.5,6.5,0,0,0,2,2.8,11.7,11.7,0,0,0,2.8,1.7,3.9,3.9,0,0,0,1.5.6,4,4,0,0,0,1.5.3,13.8,13.8,0,0,1-2.5-1.7,20.9,20.9,0,0,1-2.2-2,5.9,5.9,0,0,1-1.3-2.3,3.4,3.4,0,0,1-.1-1h.1a.1.1,0,0,1,.1-.1,1,1,0,0,1,.4-.5c.6-.7,1.4-1.4,2.1-2.1a23.9,23.9,0,0,0,2.2-2.3,12.4,12.4,0,0,0,1.9-2.6,9.4,9.4,0,0,0,.6-1.5,2.9,2.9,0,0,0-.1-1.6,5.3,5.3,0,0,1-1.3,2.6,20.9,20.9,0,0,1-2.2,2l-2.3,2a22.5,22.5,0,0,0-2.4,2.1l-.6.7c0,.2-.1.3-.2.5a.5.5,0,0,0-.1.3v.3A4.4,4.4,0,0,0,382,741.5Z" style="fill:#edbbab"/><path d="M450.4,687.8c-3.8,6-10.1,11.8-14.2,15.3a13.3,13.3,0,0,1,1.1,2.4,27.1,27.1,0,0,1,2,13.8l-2,19.9a6.5,6.5,0,0,0,1.5-1.8,40.5,40.5,0,0,0,4.2-7.8,119.8,119.8,0,0,0,4.3-13.4C450.3,704.6,451.2,694.9,450.4,687.8Z" style="fill:#562a19"/><path d="M453.6,678c-1-11.9-17.3-17.7-17.3-17.7l17-.7s-6.4-12.6-30.6-18a118.9,118.9,0,0,0-22.1-3l5.5-.9,14-1.9a42.9,42.9,0,0,0-7-2,58.7,58.7,0,0,0-7.2-.8,51.4,51.4,0,0,0-14.6,1.5l-3.6,1.1c-1.1.5-2.3.9-3.4,1.5l-.9.4-.8.5-1.7.9-1.5,1.1-1.5,1.1a4.6,4.6,0,0,0-.7.7c-8.9,3.3-11.9,8.1-11.9,8.1l6-16.2s-9,8.3-11.1,11.7-4.1,11.3-4.1,11.3-8.8-1.1-14.3,16.6c-3.1,10-1.3,27.9.6,40.8.5,3.5,1.1,6.6,1.5,9.1s1.2,6.1,1.2,6.1l5.7-26.5,8.1-17.1h18.4s13.9,11.1,18.2,13.8a72.5,72.5,0,0,0,21.6,9.1L409,693.8l8.2,4.4,5.1,5.3c-.3-1-.6-2.1-1-3.1l10.9,5.8,4-3.1c4.1-3.5,10.4-9.3,14.2-15.3C452.5,684.4,453.8,681.1,453.6,678Z" style="fill:#6e391f"/><polygon points="416.4 910.9 416.4 919.6 422.3 919.6 422.3 912.6 422.3 912.4 422.3 910.9 416.4 910.9" style="fill:#a67c52"/><polygon points="358.2 919.6 358.2 910.9 354.7 910.9 354.7 911.2 354.7 912.6 354.7 919.6 358.2 919.6" style="fill:#a67c52"/><rect x="362.4" y="910.9" width="16.3" height="8.66" style="fill:#a67c52"/><rect x="399.5" y="910.9" width="12.6" height="8.66" style="fill:#a67c52"/><polygon points="358.2 919.6 358.2 922.8 362.4 922.8 362.4 919.6 362.4 910.9 362.4 907.7 358.2 907.7 358.2 910.9 358.2 919.6" style="fill:#555"/><polygon points="412.2 919.6 412.2 922.8 416.4 922.8 416.4 919.6 416.4 910.9 416.4 907.7 412.2 907.7 412.2 910.9 412.2 919.6" style="fill:#555"/><polygon points="378.7 919.6 378.7 922.5 399.5 922.5 399.5 919.6 399.5 910.9 399.5 908 378.7 908 378.7 910.9 378.7 919.6" style="fill:#b3b3b3"/><path d="M380.7,751.4c.5,2.2,3.7,5.3,7.2,6.2a11.2,11.2,0,0,0,9.5-2.3,79.5,79.5,0,0,1-8.7-1.2C387.3,753.8,382.8,752.8,380.7,751.4Z" style="fill:#edbbab"/><path d="M438.3,803.5a5.4,5.4,0,0,0-3.8-3.7l-28.1-7.7a14.7,14.7,0,0,1-1.3,2,19.6,19.6,0,0,1-5.5,5l-2.2,1.2a22.7,22.7,0,0,1-8.9,1.7,23.4,23.4,0,0,1-9.1-1.7l-.9-.4a19.8,19.8,0,0,1-6.7-5.5c-.8-1.1-1.2-1.8-1.2-1.8l-22.1,5.7c6.3,2.8,7.6,4.9,7.6,4.9s.4,2.9.9,7.6h0c1.5,14.4,4.5,45.5,3,59.8-.2,1.2-.3,2.2-.5,3.1h2.3c.1-1.8.2-3.1.2-3.1s44.1-1.6,67-2.2l2.5-16.4.8-5.7.6-3.7.9-5.9,4.6-30.9A4.4,4.4,0,0,0,438.3,803.5Z" style="fill:#183b59"/><path d="M365.9,793.8h0l-4,1h0c8.5,18.1,40.3,23.3,52.4-.6h-.9l-1.3-.4-1-.2h-.5C396.7,813.7,372.9,805.8,365.9,793.8Z" style="fill:#0c6ed6"/><path d="M359.2,784.7l.2-.3-1.5.4Z" style="fill:#edbbab"/><path d="M363,778.1c.1-.2-.1-.4-.4-.7l-2.8.8a13.3,13.3,0,0,0-3.1,2.9v.2l5.3-1.4Z" style="fill:#edbbab"/><path d="M354.8,777.7l.8-.9c1-2.8,1.5-6.8.6-12.8a20.7,20.7,0,0,0-.4-2.2,1.8,1.8,0,0,0-2.1-1.4h-.1a1.7,1.7,0,0,0-1.4,2.1c1.5,7.7.5,12.1-.6,14.3C352.7,776.1,353.8,776.6,354.8,777.7Z" style="fill:#ffe1d9"/><path d="M349.4,780l.4-.9A3.6,3.6,0,0,0,349.4,780Z" style="fill:#ffe1d9"/><path d="M355.6,776.8l-.8.9a10.8,10.8,0,0,1,1.9,3.4,13.3,13.3,0,0,1,3.1-2.9l2.8-.8,7.3-1.1H371a1.8,1.8,0,0,0,1.6-2,1.9,1.9,0,0,0-2-1.7l-5.3.7a29.6,29.6,0,0,0-7.1,1.7A10.7,10.7,0,0,0,355.6,776.8Z" style="fill:#ffe1d9"/><path d="M359.4,784.4l3.8-1a42.4,42.4,0,0,0,5.5,1.5,1.8,1.8,0,0,0,2-1.6,1.8,1.8,0,0,0-1.5-2.1,32,32,0,0,1-5.4-1.5,2,2,0,0,0-1.1,0l-.7.2-5.3,1.4a13.7,13.7,0,0,1,.8,3.5h.4Z" style="fill:#ffe1d9"/><path d="M365.6,790.3a1.9,1.9,0,0,0,2.6-.6,1.9,1.9,0,0,0-.6-2.5l-3.9-2.4a2,2,0,0,0-1.1-.3l-3.4.2h-1.7a9.2,9.2,0,0,1-.5,3.8l5.3-.4Z" style="fill:#ffe1d9"/><path d="M356.8,789.1a.8.8,0,0,0,.2-.5,9.2,9.2,0,0,0,.5-3.8,13.7,13.7,0,0,0-.8-3.5v-.2a10.8,10.8,0,0,0-1.9-3.4c-1-1.1-2.1-1.6-3.2-.9a4.5,4.5,0,0,0-1.5,1.9l-.3.4-.4.9c-2.8,5.3-6.6,11.7-7.8,15.8,2.7.8,4.9,1.7,6.7,2.4A27.3,27.3,0,0,0,356.8,789.1Z" style="fill:#ffe1d9"/><path d="M347,888.7a.5.5,0,0,0,.4.2l1.9-2.3Z" style="fill:#ffe1d9"/><path d="M361.6,882.2c-.1-2.6.1-6.1.2-8.5h-2.3c-.4,2-1,3.3-1.7,3.9-4.8,4.2-7.9,5.4-11.6,3.7l-.3.7a1.2,1.2,0,0,1,1.4.3,1.2,1.2,0,0,1,0,1.9l-2.3,2.3.2.3,3.8-3.5a1.3,1.3,0,0,1,1.9.1,1.1,1.1,0,0,1,.3,1,1.4,1.4,0,0,1,2.1,1.7l-2.7,3.2.7-.2a20.6,20.6,0,0,0,4.5-1.6C359,886,360.3,883.7,361.6,882.2Z" style="fill:#ffe1d9"/><path d="M340.4,887.2l.7-.6h0l.7-.7,3.6-3.6.5-.2.3-.7-2.2-1.2h-.1l-4.8,4.6-.3.3-2.5,4.7a1.2,1.2,0,0,0,.5,1.8l.6.2a1.4,1.4,0,0,0,1.2-.7l.8-1.4.7-1.9A.9.9,0,0,1,340.4,887.2Z" style="fill:#ffe1d9"/><path d="M347.3,882.3a1.2,1.2,0,0,0-1.4-.3l-.5.2-3.6,3.6-.7.8-.7.6a.9.9,0,0,0-.3.5l-.7,1.9-.9,2.5a1.3,1.3,0,0,0,.8,1.7h.4a1.4,1.4,0,0,0,1.3-.9l1.5-4.1,2.5-2.4,2.3-2.3A1.2,1.2,0,0,0,347.3,882.3Z" style="fill:#ffe1d9"/><path d="M351.2,884.4h0a1.1,1.1,0,0,0-.3-1,1.3,1.3,0,0,0-1.9-.1l-3.8,3.5-2,1.8-.4.5-1.6,4.2a1.4,1.4,0,0,0,.7,1.8h.5a1.5,1.5,0,0,0,1.3-.9l1.5-3.9,1.8-1.7,2.3-2.1Z" style="fill:#ffe1d9"/><path d="M353.3,886.1a1.4,1.4,0,0,0-2.1-1.7h0l-1.9,2.2-1.9,2.3-.6.8a.9.9,0,0,0-.3.6l-.7,4.3a1.3,1.3,0,0,0,1.1,1.5h.2a1.4,1.4,0,0,0,1.4-1.2l.6-3.9,1.5-1.8Z" style="fill:#ffe1d9"/><path d="M443.2,891.2c7.9-10.9-.7-23.4-.7-23.4s-6.2.1-13.5.3c-22.8.6-67,2.5-67,2.5s-.1,1.3-.2,3.1-.3,5.9-.2,8.5a3.7,3.7,0,0,0,.1,1.1c.2,2.9,1.1,11.4,1.1,11.4s38,3.9,61.9,1.9c7.3-.6,13.3-1.7,16.5-3.7A6.7,6.7,0,0,0,443.2,891.2Z" style="fill:#183b59"/><path d="M357,810.8h0c-.5-4.7-.9-7.6-.9-7.6s-1.3-2.1-7.6-4.9h-.2c-1.8-.7-4-1.6-6.7-2.4a61,61,0,0,0-7-2s-10.7,69.1,6.8,84.2l2.6,2.1,2.2,1.2c3.7,1.7,6.8.5,11.6-3.7.7-.6,1.3-1.9,1.7-3.9s.3-1.9.5-3.1C361.5,856.3,358.5,825.2,357,810.8Z" style="fill:#183b59"/><path d="M363.1,873.8c17.5,1.5,48.9,2.1,59.8-3C408.6,869.3,377.6,872.2,363.1,873.8Z" style="fill:#1d4766"/><path d="M356.8,810.6c-1.5,17.5-2.1,48.8,3,59.8C361.3,856.1,358.3,825,356.8,810.6Z" style="fill:#1d4766"/><path d="M372.8,646.7a20.3,20.3,0,0,0-2.9,6.8,45.5,45.5,0,0,1,5.1-4.8,39,39,0,0,1,11.5-6.4,66,66,0,0,1,6.3-2c2.5-.7,5.2-1.2,7.8-1.7l5.5-.9,14-1.9a42.9,42.9,0,0,0-7-2,58.7,58.7,0,0,0-7.2-.8,51.4,51.4,0,0,0-14.6,1.5l-3.6,1.1c-1.1.5-2.3.9-3.4,1.5l-.9.4-.8.5-1.7.9-1.5,1.1-1.5,1.1a4.6,4.6,0,0,0-.7.7A25.4,25.4,0,0,0,372.8,646.7Z" style="fill:#7f3e25"/><path d="M398.5,649.8a123.1,123.1,0,0,1,16.3-2.5c5.5-.5,11.1-.7,16.9-.8a28.6,28.6,0,0,0-4.1-1.5c-1.4-.5-2.8-.8-4.2-1.2a65,65,0,0,0-8.7-1.2,68.6,68.6,0,0,0-17.5,1.3,57.4,57.4,0,0,0-16.5,6.5l-.9.6-.9.6-1.9,1.3a41.9,41.9,0,0,0-3.4,2.8c-.5.5-1.1.9-1.6,1.5l-1.5,1.6-.7.8-.7.8-1.3,1.8a111.3,111.3,0,0,1,15-7.6A86.3,86.3,0,0,1,398.5,649.8Z" style="fill:#7f3e25"/><path d="M384.7,668.6a87.4,87.4,0,0,1,17.7-.3c3,.3,5.9.6,8.8,1.1s5.8,1.2,8.7,2,5.8,1.7,8.7,2.7,5.7,2.1,8.5,3.4a20.5,20.5,0,0,0-3.4-3.2,33.7,33.7,0,0,0-3.8-2.8,48.7,48.7,0,0,0-8.4-4.5,57.4,57.4,0,0,0-9.1-3.1,50.8,50.8,0,0,0-9.5-1.5,55.8,55.8,0,0,0-19.1,1.6,53.1,53.1,0,0,0-17.1,7.8A148.1,148.1,0,0,1,384.7,668.6Z" style="fill:#7f3e25"/><path d="M419.3,696.2a48.1,48.1,0,0,0-4.5-6.6,39,39,0,0,0-20-13.2l-2-.5-1-.2h-1l-2-.3h-2.1a35.6,35.6,0,0,0-8,.8,27.1,27.1,0,0,0-7.4,2.6,71.9,71.9,0,0,1,14.9,1.3,49.9,49.9,0,0,1,6.9,1.9,47.6,47.6,0,0,1,6.5,2.9,63.1,63.1,0,0,1,11.9,8.2c2,1.7,3.9,3.5,5.7,5.3l5.1,5.3c-.3-1-.6-2.1-1-3.1l-.3-.6C420.5,698.6,419.9,697.4,419.3,696.2Z" style="fill:#7f3e25"/></svg>